/* XPM */
static char *c3eefb6f51134e25ad7a38ae2d7013d9esWEzi2sOmV0A6Ag[] = {
/* columns rows colors chars-per-pixel */
"50 50 241 2 ",
"   c #1D0B00",
".  c #1F1100",
"X  c #260C03",
"o  c #2A1602",
"O  c #371902",
"+  c #362704",
"@  c #3B3404",
"#  c #393A02",
"$  c #2E2F00",
"%  c #441B03",
"&  c #4A1D07",
"*  c #4B210A",
"=  c #492606",
"-  c #53260D",
";  c #463704",
":  c #492D16",
">  c #552815",
",  c #473617",
"<  c #593818",
"1  c #533A08",
"2  c #612F16",
"3  c #663915",
"4  c #602E0D",
"5  c #553B24",
"6  c #4D3720",
"7  c #693C26",
"8  c #7E3F2D",
"9  c #53481A",
"0  c #4C4815",
"q  c #644717",
"w  c #6F4F1B",
"e  c #584627",
"r  c #5B5626",
"t  c #54452B",
"y  c #694726",
"u  c #774929",
"i  c #665525",
"p  c #785828",
"a  c #674935",
"s  c #764C33",
"d  c #685836",
"f  c #785538",
"g  c #7A6927",
"h  c #786B38",
"j  c #6F6D31",
"k  c #785945",
"l  c #6E5841",
"z  c #756846",
"x  c #766F45",
"c  c #855A38",
"v  c #975A39",
"b  c #834F2E",
"n  c #A05939",
"m  c #84682B",
"M  c #886838",
"N  c #93683B",
"B  c #8B7739",
"V  c #917439",
"C  c #9A7A3B",
"Z  c #895B45",
"A  c #975943",
"S  c #A75E42",
"D  c #8B6548",
"F  c #966A49",
"G  c #8A794B",
"H  c #987744",
"J  c #876950",
"K  c #9C6D52",
"L  c #997459",
"P  c #8C7757",
"I  c #A26548",
"U  c #A67749",
"Y  c #A47454",
"T  c #A57B5B",
"R  c #B87C5B",
"E  c #A36B53",
"W  c #977863",
"Q  c #A57C63",
"!  c #B77F65",
"~  c #C17D66",
"^  c #7B8141",
"/  c #90823C",
"(  c #9B8B46",
")  c #8A914C",
"_  c #8B8856",
"`  c #998758",
"'  c #989756",
"]  c #958F4B",
"[  c #A4854B",
"{  c #A68D52",
"}  c #A98857",
"|  c #B6855A",
" . c #A59854",
".. c #B29D5C",
"X. c #B4955C",
"o. c #B6904F",
"O. c #98A259",
"+. c #B2A55D",
"@. c #A8A257",
"#. c #AC8666",
"$. c #B48563",
"%. c #BE8464",
"&. c #BB8C6C",
"*. c #B68969",
"=. c #A89866",
"-. c #B89565",
";. c #A98E74",
":. c #B98B75",
">. c #A89778",
",. c #BA957A",
"<. c #9DA164",
"1. c #A8A968",
"2. c #B6A965",
"3. c #BAB56C",
"4. c #ACAC74",
"5. c #B8B372",
"6. c #B0AF73",
"7. c #C3825C",
"8. c #C2A45D",
"9. c #C38C65",
"0. c #C78566",
"q. c #CC946A",
"w. c #C6976C",
"e. c #C18E72",
"r. c #C79778",
"t. c #D29A75",
"y. c #D2926E",
"u. c #C2AE66",
"i. c #D4A76D",
"p. c #C3BB6B",
"a. c #C2B56B",
"s. c #CAA674",
"d. c #DAA57C",
"f. c #D3A879",
"g. c #C7B874",
"h. c #D8B978",
"j. c #E2A67D",
"k. c #E3B67F",
"l. c #ABCC64",
"z. c #B4CC67",
"x. c #BBCB66",
"c. c #B5CC6B",
"v. c #BCCD6B",
"b. c #B8C667",
"n. c #BBD566",
"m. c #BCD865",
"M. c #B6D16B",
"N. c #BDD46D",
"B. c #BCD96C",
"V. c #B7D969",
"C. c #BDCD73",
"Z. c #BAC679",
"A. c #BDD471",
"S. c #BDD972",
"D. c #BED37B",
"F. c #B7D170",
"G. c #C1CD6D",
"H. c #C0CF66",
"J. c #C2D46D",
"K. c #C9D36E",
"L. c #C3DA6D",
"P. c #C3D468",
"I. c #C5C375",
"U. c #C3CD74",
"Y. c #CBCD74",
"T. c #C5C37A",
"R. c #C5CE7A",
"E. c #CBCD7C",
"W. c #CBC575",
"Q. c #D1C57D",
"!. c #D3CC7C",
"~. c #D3C977",
"^. c #C3D472",
"/. c #CBD273",
"(. c #C3D973",
"). c #C4D37A",
"_. c #CCD37B",
"`. c #C4D97A",
"'. c #CCDA7B",
"]. c #D1D37E",
"[. c #E0C27C",
"{. c #B7B385",
"}. c #C99B83",
"|. c #D19D82",
" X c #CAA686",
".X c #DCAB8C",
"XX c #D6A685",
"oX c #C5B885",
"OX c #DAB585",
"+X c #DDB795",
"@X c #E2AB88",
"#X c #E3BC8C",
"$X c #E7B788",
"%X c #E4B594",
"&X c #EBBC94",
"*X c #EBB999",
"=X c #F4BE92",
"-X c #BFC682",
";X c #CCCE82",
":X c #C7C786",
">X c #D1CD83",
",X c #DAC384",
"<X c #C4D383",
"1X c #CAD384",
"2X c #C6DC83",
"3X c #CBDA82",
"4X c #CDD68B",
"5X c #C6D38A",
"6X c #D3D284",
"7X c #D7D587",
"8X c #CDD593",
"9X c #D9D39A",
"0X c #E9C98B",
"qX c #F5C68F",
"wX c #EDCC93",
"eX c #EBC599",
"rX c #F3CB94",
"tX c #FACC97",
"yX c #F5CA9C",
"uX c #FBCC9B",
"iX c #F8C497",
"pX c #F6D295",
"aX c #FAD296",
"sX c #FCD29D",
"dX c #FCD99C",
"fX c #F5D399",
"gX c #E9D593",
"hX c #EAC5A6",
"jX c #F5C5A3",
"kX c #F5CDA2",
"lX c #FDCDA3",
"zX c #F8C8A8",
"xX c #FED3A2",
"cX c #FFDAA2",
"vX c #FFD3AB",
"bX c #FBD5A5",
"nX c #FFD6B3",
"mX c #FECFB1",
"MX c #DCE1A7",
"NX c #FFE3B3",
"BX c #D0E28E",
/* pixels */
"l.l.M.N.N.J.J.J.L.L.(.(.P.P.K./.!.7Xu.m q p U -.w.U v w p X.,Xg.Y.G.J.^.^.^.^.A.).).).^.S.B.V.V.N.^.",
"l.M.N.S.^.^.J.^.(.L.(.L.v.G./.Y.~.g.2.{ { { -.s.d.t.| H V H 2.Q._.^.v.N.A.S.^.^.).).A.A.N.N.V.V.J.^.",
"l.M.S.(.(.^.^.(.J.N.J.^.G././.Y.p.u.u.h.wXwXrXuXuXuX=Xf.X.V V 2.E._.U.v.^.^.N.^.N.A.A.A.N.N.V.m.J.^.",
"z.M.N.^.^.^.J.J.N.N.^.^././.Y.p.u.h.,X0XfXdXsXyXsXxXuXtX$X{ V ( +.Y._.G.^.(.N.S.N.N.F.A.N.N.N.N.^.^.",
"z.M.N.S.^.^.S.N.^.S.^./.Y.~.W.u.8.[.wX0XwXfXfXrXtXrXuXsXrXh.{ m ( p.6XU.J.(.J.B.N.N.N.N.N.A.N.^.^.^.",
"N.N.S.^.^.S.S.N.S.N.v.U.Y.!.~.u.8.h.pXaXdXdXdXcXsXtXxXxXrXrXs.m H a.7XE.G.J.N.n.N.N.N.A.^.^.^.^.^.^.",
"N.N.^.^.(.S.S.N.M.z.v.I.W.Q.g...o.h.aXdXpXqXwXrXtXyXsXtXtXcX#XH V ..g.!./.P.m.n.m.N.N.N.^.^.^.^.^.^.",
"J.J.J.^.(.B.N.N.M.F.C.U.W.g.+.C C i.aXaXqXqXpXsXxXsXsXtXtXcXOXH p V ..W./.P.m.m.N.N.N.J.^.^././.^.^.",
"v.v.v.N.N.B.S.S.S.M.).R.>XQ.g.[ m i.aXaXpXaXrXaXxXtXuXxXtXxX#XH p H ..Q./.H.L.m.m.m.N.J.^.^././.^.^.",
"v.v.N.N.N.N.S.S.S.S.).R.6XgX0X{ m i.aXsXdXcXrXrXtXsXuXuXxXxXOXH c } g.!.Y.P.L.m.m.m.N.J.^.^././.^.^.",
"J.J.J.^.J.N.B.S.S.S.).U.>XgXgX-.N f.sXsXaXsXsXsXiXxXuXxXvX&Xw.N F -.g.!.Y.x.L.n.m.N.N.J.^.^././.^.^.",
"J.^.^.^.^.J.N.B.S.F.).U.E.Q.,X-.m w.wXsXsXsXtXiXuXuX=X=X&Xf.} c M ` 2.E._.x.n.m.m.L.N.^.^.^.^./.^.^.",
"A.^.^.^.^.J.N.B.(.S.).).E.T.a.H M | OXeXbXxXuXuXlX=Xd.t.r.r.Y 3 1 M ..T.'.J.J.L.L.P.J.J.^.^.^.^.^.^.",
"v.N.^.^.J.J.J.J.(.^.).U.;X;X3.g q M -.OX#X$X&XiX$Xj.q.%.*.&.F % + B 5.T._.^.(.N.P.J.J.J.^.^.^.^.^.^.",
"z.v.^.J.J.N.J.L.N.S.^.C.E.>Xg.B ; < M -.s.9.9.q.q.y.9.%.$.K s = i 1.>XE.R.^.J.N.J.J.J.J.J.J.L.N.N.A.",
"z.v.S.^.J.J.J.^.(.N.^.).).E.;X1.h q q D #.&.9.9.0.y.0.%.Y y < p ` :X7X1X).^.(.^.J.N.N.N.N.L.B.N.v.v.",
"M.N.N.N.^.^.^.N.J.N.(.^.C.R.R.7XoXi O y K ! ! 0.0.0.~ E s * < =.:X;XR.).).).(.(.N.N.N.N.N.N.M.M.z.c.",
"B.B.S.^.^.^.J.x.v.x.J.(.).U.).6Xg.i o O 7 A I S S S A 8 - X < 6.9X<XR.R.C.C.`.(.N.N.B.B.B.B.M.N.N.N.",
"B.S.(.^.^./.v.b.x.J.^.^.).R._.I.=.i = * 7 Z I I n v v b 2 O < } T.;X1XR.R.).A.^.^.N.S.S.S.N.N.S.N.S.",
"M.N.S.A.^.^.v.b.v.'.^.G.G.U.T.2.M p f L Q $.R R 7.R R R E f y M ' T.6XU.3X'.x.^.^.N.N.N.N.N.N.S.S.S.",
"N.N.N.N.^.^.J.v.J.(.J.U.Y.p.+. .{ } &.r.}.XXd.j.j.j.XXt.e.&.#.} ' @.3.U._.'.v.^.N.N.N.N.S.S.^.^.^.S.",
"S.S.S.N.^.^.^.^.J.x.G._.7X2./ { wXeX+Xr.}.jXlXuXqXiXuX@Xr..XeXwX2.g  .6XU.R.^.x.^.^.J.(.^.^.^.^.^.^.",
"B.N.N.N.^.^.^.^.J.x.Y.E.7X+.m X.sXvXjX|.XXvXvXuXtXuXvX$Xr.%XvXNXg.g ( >XE._./.x.J.^.^.(.(.(.^.^.^.^.",
"M.M.z.v.v.^.^.^.J./.7XI.Q...m -.tXlX*Xr.r.eXuXtXaXqXiXd.e..XyXkXs.B ( a.E.].G.'.J.^.^.(.(.^.^./.^.^.",
"N.N.S.^.^.N.^.^././.Y.p.( V X.s.iX&Xe.F Y r.#XcXsX$Xd.| I $.XXyXOX{ B / p._.G.^.^.J.J.N.N.J.^./.^.^.",
"B.N.N.^.^.^.^.^.'./.Y.2.B V s.&XiX.XT u c &.$XrXaX$Xt.N u F t.eXeXs.C g +.E./.^.^.J.J.N.J.^.^./.^.^.",
"N.M.N.S.^.^.^.^.^.U.E.3.B H #XlXjXXXF < y $.$XaXdXqXq.b 4 c r.&XkXwX{ g @.E._.J.N.N.J.J.^.^.^.^.^.^.",
"M.N.N.S.^.(.^.^.J.G.].p.B [ &XjX.X&.c * - F f.sXdXk.| 3 & u T f.eXbX-.m +.E.'.N.N.N.J.J.^.^.^.^.^.^.",
"N.N.S.S.^.^.^.^.^.G.].3.B H %X%X&.F 7 * - c w.sXsXf.U 3 & 2 c #.XXeXX.m +.I._.^.N.N.N.J.^.^.J.G.^.^.",
"N.(.^.S.N.A.A.N.^.U.6Xg.B H XXXX*.s > < s L f.sXcX$X| b 3 - 7 K r.f.[ m 2.E.R.^.N.N.N.N.J.L.J.G.U.A.",
"(.(.S.N.N.^.S.N.^.U.7Xg.h p *.r.Q 5 & 7 L r.#XuXsXiXt.Y b * - K &.*.M p 2.6XR.G.J.N.M.N.J.J.G.v.C.C.",
"(.N.N.v.A.`.(.^.).R.;X1.w q T r.Q < % a #.%XyXsXtXvX&Xe.Z & * Q r.} p 1 ' 6X).).^.N.N.N.N.P.N.x.v.C.",
"N.J.v.x.v.).'.).U.Z.4X1.; , ;.;.L > % y *.jXlXxXuXvXmX|.Z * * J :.#.e ; ' 1X).).^.A.J.N.N.M.n.n.N.F.",
"N.N.N.x.v././.U.).).4X1.0 9 _ ;.k * % u $.&XuXuXlXlXzXr.f * * a W >.d # ) 1X).).^.^.^.^.J.N.n.N.N.A.",
"N.S.^.v.v.^.^.A.^.A.<XZ.) j r 9 : O % c T *.w.&.Y Y :.Q s : O + , r j h 1.).2X).^.).^././.^.^.N.^.^.",
"N.S.(.^.A.A.^.N.N.c.).).<X' 0 + : O < T #.D c u = & s D k 6 o + $ # ^ -X2XD.`.`.).).R.).).)././.^.J.",
"S.S.(.^.^.^.S.B.B.B.S.F.2XZ.) ' P d f  XXXY D 3 % % a J W 5 + z _ ' 6.D.2XD.N.^.)./.R.E.E.E.E.).K.P.",
"F.S.S.S.S.S.N.B.S.S.N.z.D.<X<XMX9X` G +XhXs.$.c * * Z W ;.t , {.MX8X<XD.D.S.S.M.^./.R.E.E.E.E._.K.K.",
"^.N.N.N.N.N.N.N.B.B.N.S.).1X4X:XoXG H +XlX*XXXE - > W :.;.t , >.8XZ.<X2XD.S.(.M.^.).).R.E.E.E.R.J.P.",
"(.J.N.N.J.N.N.N.M.S.S.2XD.<X8X4.G p H #XvXlX*X! u 7 :.}.;.5 + z 1.:X5XD.D.M.z.(.^.^./.).R.R.R.R.J.P.",
"K.P.P.J.L.J.N.N.S.S.D.D.-X8X:Xh = q U $XlXiX@X%.A Z :.}.#.a O o d 4.5X-X).S.N.S.^.^.^.).).).).^.^.J.",
"P.P.P.J.J.J.N.^.S.`.Z.Z.8X6.h r 3 b | qXiXj.y.0.A A :.r.*.c = o + r <.4XBX`.S.S.N.N.^.^.^.S.S.N.z.x.",
"H.P.P.L.P.v.^.`.`.2X<X-X{._ , < c U t.$X$Xt.9.%.v A r.|.:.Y s = o + j 4.Z.).`.S.N.N.N.(.(.B.N.N.z.z.",
"P.P.P.J.G.v.v.^.).C.4X5.h 9 5 y c R 9.q.@X$Xd.%.v I @X.Xe.*.Y f e t 0 i O.).`.S.N.N.N.N.B.B.M.M.M.v.",
"L.P.P.J.J.v.v.A.).C.4X1.@ O f Z F e.r.t.$XyX@X| v Y *X*X|.XXr.T J l @ $ ) 3XC.^.^.J.J.N.N.M.M.N.N.N.",
"L.N.N.N.^.A.N.C.).3X4X6.9 + f J *.%XzXlXlXyXOX$.M Y *XmXjXjX*X,.P d @ # ' 1Xc.(.(.^.J.N.N.M.N.N.N.S.",
"L.N.N.^.(.^.A.A.v.).Z.5.` i < s T }.hXnXnXkXOX-.y M +XnXmXjX.X*.z t r x 1.).C.(.^.J.J.J.J.N.N.S.^.^.",
"(.S.S.(.(.S.F.F.c.c.b.I.:X` < < f L ,.+XhXeX XL : y  XhXhX XQ k e + x -XZ.3X3XN.N.N.^.^.^.^.^.N.^.^.",
"x.N.L.B.M.B.S.S.(.v.G./.E.5.=.d , 6 e a d l a 5 O : a k k a 6 , e _ 4.-X1X).^.S.N.N.^.^.^.^.J.^.J.^.",
"x.P.L.m.V.V.S.S.`.(.K./.E.:XoXx o X       o X   X X o o X     . d 6.:XZ.R.).`.z.N.N.S.^.^.^.J.L.^.^."
};
