/* XPM */
static char *_e67a7c76a084b5d936510e9fa536554GjB6Wd3UdBgHJov2[] = {
/* columns rows colors chars-per-pixel */
"50 50 214 2 ",
"   c #040203",
".  c #060609",
"X  c #1B0F0F",
"o  c #0F0F11",
"O  c #0C1915",
"+  c #131313",
"@  c #171817",
"#  c #2F1C17",
"$  c #282319",
"%  c #322218",
"&  c #161D2D",
"*  c #191E2B",
"=  c #191B32",
"-  c #122127",
";  c #1A2438",
":  c #24282B",
">  c #2D2C2B",
",  c #302C29",
"<  c #30302A",
"1  c #313131",
"2  c #3D393E",
"3  c #4D2B0C",
"4  c #5B320E",
"5  c #563310",
"6  c #5E3112",
"7  c #602E0E",
"8  c #602B12",
"9  c #7C291C",
"0  c #633516",
"q  c #442823",
"w  c #433429",
"e  c #4A372A",
"r  c #543D2D",
"t  c #473930",
"y  c #4C3C32",
"u  c #533C33",
"i  c #6D2022",
"p  c #752923",
"a  c #7E2B22",
"s  c #6F332F",
"d  c #723838",
"f  c #5A4637",
"g  c #744E2D",
"h  c #684A34",
"j  c #644C3C",
"k  c #78493B",
"l  c #7D4E3D",
"z  c #6A503F",
"x  c #76533F",
"c  c #7B523E",
"v  c #1F2D49",
"b  c #222E4A",
"n  c #233254",
"m  c #263B64",
"M  c #2F3D69",
"N  c #2F466E",
"B  c #2D4374",
"V  c #2D4777",
"C  c #314678",
"Z  c #494A46",
"A  c #525151",
"S  c #684E44",
"D  c #7B4E41",
"F  c #685343",
"G  c #6F5749",
"H  c #725643",
"J  c #7D5144",
"K  c #755946",
"L  c #795A47",
"P  c #7A5249",
"I  c #755C4A",
"U  c #7A5D4A",
"Y  c #7B5A51",
"T  c #7D614D",
"R  c #7E6350",
"E  c #585E63",
"W  c gray43",
"Q  c #706969",
"!  c #7C7A7B",
"~  c #8C3C0A",
"^  c #8F3B15",
"/  c #88341C",
"(  c #8A3C19",
")  c #8F3029",
"_  c #9E3E36",
"`  c #AE3926",
"'  c #954614",
"]  c #97451A",
"[  c #9C4B1B",
"{  c #8F521F",
"}  c #9C511A",
"|  c #A14E1C",
" . c #A94B18",
".. c #984B26",
"X. c #9A5622",
"o. c #925A22",
"O. c #804E36",
"+. c #905531",
"@. c #A15122",
"#. c #AB5A24",
"$. c #A8572B",
"%. c #B1572A",
"&. c #9D643C",
"*. c #AD6424",
"=. c #AC662D",
"-. c #B26324",
";. c #BA6827",
":. c #B2632A",
">. c #B56A2C",
",. c #B77429",
"<. c #BD752A",
"1. c #AA6633",
"2. c #B56231",
"3. c #BF7431",
"4. c #C75835",
"5. c #C27429",
"6. c #C96A37",
"7. c #C27632",
"8. c #C47B33",
"9. c #CA7B33",
"0. c #C9793A",
"q. c #825341",
"w. c #895A4A",
"e. c #955D4C",
"r. c #B14B43",
"t. c #AE504D",
"y. c #A85D53",
"u. c #81644E",
"i. c #976646",
"p. c #846652",
"a. c #886754",
"s. c #856955",
"d. c #886955",
"f. c #856B5A",
"g. c #896D59",
"h. c #9B6855",
"j. c #966859",
"k. c #AC6F5B",
"l. c #8F7A6D",
"z. c #A97765",
"x. c #B77869",
"c. c #C65843",
"v. c #D15744",
"b. c #CC6E47",
"n. c #DA726D",
"m. c #D87868",
"M. c #CE8436",
"N. c #CC8A34",
"B. c #CE843A",
"V. c #CE893B",
"C. c #D28636",
"Z. c #D18936",
"A. c #D1863A",
"S. c #D28A3A",
"D. c #D8953B",
"F. c #DB973E",
"G. c #DAA33B",
"H. c #E4A53E",
"J. c #B5816A",
"K. c #A18070",
"L. c #CE8C4F",
"P. c #D28A41",
"I. c #DD9B42",
"U. c #DB9947",
"Y. c #E38C4F",
"T. c #E49F45",
"R. c #E79A4C",
"E. c #E69959",
"W. c #DFA142",
"Q. c #E2A242",
"!. c #E3A443",
"~. c #E2A245",
"^. c #E3A249",
"/. c #EAA84D",
"(. c #C48673",
"). c #DF8E7D",
"_. c #EEA361",
"`. c #314A82",
"'. c #3C5896",
"]. c #3D60A7",
"[. c #516C99",
"{. c #4663AB",
"}. c #838D9A",
"|. c #A09483",
" X c #B2A8A3",
".X c #D89482",
"XX c #E49C86",
"oX c #D4A890",
"OX c #D8B59A",
"+X c #E8A789",
"@X c #E7A992",
"#X c #EEB796",
"$X c #F7BD98",
"%X c #CBB6B0",
"&X c #E8B8A1",
"*X c #E7C398",
"=X c #FEC993",
"-X c #FDC599",
";X c #FECA9B",
":X c #FACAA3",
">X c #F2CEAD",
",X c #F9D8B5",
"<X c #FEE6BD",
"1X c #D8D9D2",
"2X c #F1D8C4",
"3X c #FDEAC3",
"4X c #FBE6C9",
"5X c #FEEBCD",
"6X c #FEF1CE",
"7X c #FDECD2",
"8X c #FDF2D8",
"9X c #C9D7E2",
"0X c #EFF1EF",
"qX c #FFF7E1",
/* pixels */
"w y y e r f j G I R R R R s.f.f.f.s.s.s.s.s.s.s.s.s.f.f.f.f.f.f.f.s.s.s.s.f.s.R R R R I G j r w w w ",
"w y y j z K T s.f.f.s.s.f.f.f.f.f.s.f.f.:.2.*.=.*.1.i.f.f.f.s.s.s.s.s.s.s.f.f.s.s.s.s.s.R I z j u w ",
"w f F R R s.s.f.f.f.f.f.f.s.s.s.s.s.1.-.9.T.^.T.U.<.5.;.*.-.-.-.:.s.s.s.s.s.f.s.s.R p.s.s.p.R U G f ",
"y F R R p.s.s.s.g.g.g.g.s.s.s.s.s.=.5.P.V.T.Q.^.^.G.I.0.[ #.M.F.Q.1.s.s.p.p.s.s.s.s.f.f.s.s.s.s.s.G ",
"F T T p.s.s.s.s.s.g.s.s.s.p.p.p.p.:.B.Z./.W.~.Q.I.Z.F.F.9.[ F.M.!.H.>.i.p.p.p.p.p.p.p.p.p.p.p.p.p.T ",
"K u.p.u.p.p.s.s.s.s.s.s.s.p.p.p.:.3.8.A.~.!.~.!.^.I.Z.A.;.' I.P.H.Q.:.&.u.u.u.u.u.p.p.p.p.p.p.p.p.u.",
"U p.p.u.u.u.p.p.s.s.s.p.p.p.p.p.-.7.7.A.<.~.Q.Q.I.Z.A.8.>.3.Z.S.S.~.4 h u.u.u.u.u.u.u.p.p.p.p.p.p.p.",
"T u.u.T R u.u.u.p.p.p.p.p.p.p.p.:.7.7.V.7.!.~.Q.I.A.A.8.;.3.A.V.A.T.6 g u.u.u.u.T T u.u.u.p.p.p.u.p.",
"T T T T T R u.u.u.p.p.p.p.p.p.p.:.A.-.A.-.A.8.8.A.A.B.>.] 0.M.^.Q.A.6 h R R R R R R u.u.u.u.u.u.u.u.",
"T T U T T T R u.u.u.u.u.u.u.p.p.@.7.:.-.:.7.*.>.9.8.#.] :.M.C.N.U.4 X t T T T T T T T R R u.u.u.u.T ",
"R T T T T T R u.u.u.u.u.u.u.p.} ^ @.:.A.:.S.7.7.%.[ [ Z.S.C.G.P.5 Z @ t T T T T T T T T R R u.u.u.T ",
"T T T u.T U U T u.p.p.u.u.p.| V.| ^ ^ | -.$.@...' 8.F.I.H.D.=.4 Z O + t T R R R R R R R u.u.u.u.u.u.",
"T p.T p.T U U T u.p.p.p.p.7 -.:.:.Z.[ ^ ^ ~ -.-.8.A.I.D.U.,.-.1 E 1 + t R R u.u.u.u.u.u.u.u.p.p.p.p.",
"T u.T u.T U U T u.p.p.p.p.6 M.@.:.@.-.A.} <.S.D./.U.7.;.+.A > + Z 1 + t R R R R R u.u.u.u.u.p.p.p.u.",
"T u.T T U K K U R u.p.p.p.7  .;.N.:.7.-.A.S.N.A.;.' g 2 1 > < . < + u.u.R T T T T u.u.u.u.u.p.p.u.u.",
"T u.T T U K K U R u.p.p.p.p.7 } *.| A.-.M.2.[ [ ..w.u @ + > @   :   u.u.R T T T U u.u.u.u.u.p.p.u.u.",
"T u.T T U K K U u.p.p.p.p.p.p.0 0 [ [ #.( ( l c f $ @  XA > XXX o p.u.u.R T U U U u.u.u.u.u.p.p.u.u.",
"T u.T T U K K U u.p.p.u.u.u.u.u.u.0 3 3 3 j.w.G Q |.l.8XW 1X4Xx.p.p.p.u.R T U U U u.u.u.u.u.p.p.u.u.",
"T u.U T U K K T u.p.p.u.u.u.u.u.u.u.  + + ,X  > 3X%X X3X2X5XqX@Xp.p.u.u.T T U U U u.u.u.u.u.u.u.u.u.",
"u.u.T u.U K K U u.u.u.u.u.u.u.u.u.u.$ o + j.# y :X3X7X,X(.oXOX(.u.p.u.u.u.T U K H U T p.s.p.p.u.u.u.",
"u.p.T u.U K K U u.u.T u.u.u.u.u.u.u.L   + . l e.&X4X7X7X:Xi.k P p.p.p.u.u.T U K H U T p.p.p.p.p.u.u.",
"u.p.u.u.U K K U u.u.u.u.u.u.u.u.u.u.U U   O J c h.@X,X7X8X:XL p.p.p.p.u.u.T U K K I U u.p.p.u.u.u.u.",
"u.p.u.u.U K K U u.u.u.u.u.u.u.u.u.u.U U 9 4 c c c q.z.XXh.H p.p.p.p.p.u.u.T K K K K U T u.u.u.u.u.u.",
"u.p.p.u.U K K U u.u.u.u.u.u.u.u.u.u.T T a ~ :.>.C.6.t.z.w.p.p.p.p.p.p.u.u.U K K I K I T u.u.p.p.p.p.",
"u.p.p.u.U K K U u.u.u.u.u.u.u.u.u.u.u.9 ` v.a a ) b.4.m.J.w.p.p.p.p.p.u.u.U H K U H L T u.p.p.p.p.p.",
"p.p.p.u.U K K U u.u.u.u.u.u.u.u.u.u.u.9 k.:X7X7XOX_ Y.0.XXJ.a.p.p.p.p.p.u.U H K U H K T u.p.p.a.p.a.",
"p.a.p.u.T U U T u.u.u.u.u.u.u.u.u.u.a x XX5X6X4X,Xm.Y.W.4.).d.p.p.p.p.p.u.U H K U H L T p.p.p.a.p.p.",
"p.d.p.u.u.u.u.u.u.u.u.u.u.u.u.p.p.p.) J ;X5X5X<X@Xx.n.R.6.).g.a.a.p.p.p.u.T K K U H U u.s.p.u.u.p.p.",
"p.d.p.u.u.u.u.u.u.u.u.u.u.u.u.p.p./ ` D ;X5X:X$X(.y.n._.6.y.d.a.s.p.p.p.p.u.U K U H U u.p.p.p.u.p.p.",
"p.d.p.u.u.u.u.u.u.u.u.u.u.u.u.p.p.9 %.O.;X7X$X@Xy.r.n.E.c.O.p.a.a.p.p.p.p.u.U K I H U u.s.p.p.u.p.a.",
"p.d.p.u.u.u.u.u.u.u.u.u.u.u.u.p.p.s p k -X7X&X@Xk...v.E.i.k p.a.a.p.p.a.s.u.U K I H U u.s.p.p.p.p.d.",
"p.d.p.u.u.u.u.u.u.u.u.u.u.u.u.p.p.p.d i (.<X5X3XOXi.L.#XoXS p.a.a.p.p.p.s.u.U K U H U u.s.p.p.p.p.d.",
"p.d.p.u.u.u.u.u.u.u.u.u.u.u.u.p.p.p.p.q c #X7X4XOXj.K.l.W : R a.a.p.p.p.p.T U K U H U u.s.p.p.p.p.a.",
"u.d.u.u.u.u.u.u.u.u.u.u.u.u.u.p.p.p.u.& q.+X7X3X+XS * & m ; R a.a.a.p.p.u.T K K U H U u.s.p.p.p.p.p.",
"s.u.p.p.p.u.u.u.u.R T R R R R R u.u.T & = P x.z.Y b C v m ; p.a.a.s.d.d.p.U K K U U T p.s.s.p.p.p.p.",
"s.u.a.p.p.u.u.u.u.T T T T R R R R R T & & * V B C B n n B ; p.a.d.s.d.d.p.U L L U U u.a.d.d.a.p.p.u.",
"p.u.a.p.p.u.u.u.R T T T T T T R R u.T & - C C `.{.'.M B m ; p.a.d.s.d.d.p.U L L U T u.a.d.d.a.p.p.u.",
"s.p.a.p.p.u.T u.T T U U U T T R u.u.u.& * N {.{.{.'.n b ; I a.d.d.d.d.d.p.U L L U p.p.s.d.s.a.p.p.u.",
"g.a.a.p.p.u.R R T U U U U U T T u.u.u.& ! C N V ].[.A m Q d.d.d.d.d.d.d.p.U L L U u.p.s.d.s.a.p.p.p.",
"g.s.p.p.p.u.R T T U U K U U U T R u.p.c - ! 9X1X0X}.y l u.d.d.d.d.d.d.d.p.U L L U p.a.d.d.a.p.a.p.u.",
"s.p.p.p.p.u.T T T U K K K U U T R u.p.c XX=X=X-X+Xj.J D c p.d.d.d.d.d.d.p.U L L U p.s.d.d.a.p.a.p.p.",
"R p.u.s.p.u.T T T U U H K U U T R u.p.c ;X;X=X$X.Xh.c c D l a.d.d.d.d.d.p.U K L U a.s.d.s.a.p.a.s.p.",
"R f.p.p.p.R T T T u.T K K K U U T u.T c =X;X;X$X+Xx.J l l q.d.d.d.a.a.a.p.U H H U a.a.a.a.a.a.a.a.p.",
"I s.p.p.p.R T T R u.R U U U U U T T T c ;X;X:X;X*X:.:.+.J J s.d.d.d.s.a.p.p.L L T p.p.p.p.p.p.p.p.s.",
"F s.f.p.p.u.R R u.p.p.u.R T T T T T u.D A.4X5X>XL.5X>Xb.i.a.a.a.a.a.a.p.a.p.T U U p.p.p.p.p.p.p.p.s.",
"f R g.p.p.u.u.u.u.p.p.p.u.u.R R u.u.u.u.8 A.S.Z.V.V.A.{ L a.a.p.u.u.p.p.p.p.u.u.U u.u.u.u.u.u.u.p.s.",
"r H s.p.u.u.u.u.u.p.p.u.u.u.u.u.p.p.p.u.h X.o.o.o.o.o.g T a.u.u.u.U T u.p.p.u.p.U u.u.u.u.u.u.u.p.R ",
"q f K R R u.u.u.u.u.u.u.u.R u.u.p.s.p.u.u.u.u.p.p.p.s.s.a.p.u.u.U L U u.p.u.u.u.U u.u.u.u.u.u.p.R T ",
"% e j T T R u.p.p.u.p.u.u.R T u.u.u.p.p.p.p.p.p.p.p.p.p.a.p.p.u.p.L L p.a.u.u.u.p.T T T T T T T T I ",
"% , w z K R s.a.p.u.u.u.u.u.T T T T p.p.p.s.s.p.p.p.s.s.s.s.s.s.p.U u.p.p.u.u.u.u.u.u.T U T u.T I S "
};
