/* XPM */
static char *db9e3f686e7b4b34a0d8fcee34754013yrcdN26DFIx2V0Xm[] = {
/* columns rows colors chars-per-pixel */
"50 50 69 1 ",
"  c #322016",
". c #31231A",
"X c #3B2B21",
"o c #422F23",
"O c #483222",
"+ c #433429",
"@ c #4F3A2C",
"# c #543D2D",
"$ c #4C3D31",
"% c #533D31",
"& c #5D4536",
"* c #55443A",
"= c #5F4A3B",
"- c #604736",
"; c #644C3C",
": c #6A503F",
"> c #644F41",
", c #645244",
"< c #6B5443",
"1 c #6F5749",
"2 c #725643",
"3 c #755A46",
"4 c #795A47",
"5 c #755C4A",
"6 c #7B5E4A",
"7 c #7D614D",
"8 c #7E6350",
"9 c #81644E",
"0 c #836652",
"q c #886752",
"w c #846855",
"e c #856C56",
"r c #896956",
"t c #886C57",
"y c #806858",
"u c #856B58",
"i c #836C58",
"p c #876D5A",
"a c #826B5C",
"s c #836C5D",
"d c #866C5C",
"f c #8A6C59",
"g c #896E58",
"h c #8B6F5C",
"j c #8C705D",
"k c #8D715D",
"l c #FC9D03",
"z c #FD9B04",
"x c #FA9F04",
"c c #FC9C04",
"v c #FC9D05",
"b c #FD9D08",
"n c #F3C702",
"m c #FDCF00",
"M c #FCCE03",
"N c #FECE03",
"B c #FBD101",
"V c #FDD003",
"C c #FED104",
"Z c #FDD72B",
"A c #F9DF6E",
"S c #F9DF70",
"D c #F4DC7F",
"F c #F7E169",
"G c #F7E06F",
"H c #F8E06B",
"J c #F9E06E",
"K c #FCE480",
"L c #FEF3C2",
/* pixels */
"+$$@#&;158888yasayywwwwwwwddddppiwyyyuy888851;#Oo+",
"+$$;:37wuuewupdduwppppgggpppppeewwwwwuuwwwww85:-%+",
"+*,88weppuuppeewwetghkkkkhggttee0eewweuew80we0061*",
"@,880weegggteewweweeetggttggttteeeee00eewwueeeeww1",
"<770eeeeeteew00000wwwwwweee070eew00000000000000007",
"390900eeeeeew000000wwwwwwwe07700009999999000000009",
"60099900eee000000000000000w763780999999999900000qq",
"79978999000000000000000000073336899999999799900000",
"77777899900000000099999999063226788888888899999999",
"77677789999999000099999999963223777777777778899997",
"87777789999999000099999999974224677777777777889999",
"77797667900990000099999000097666677778888888999999",
"70707667900000000099000000w00909778888999999990000",
"79797667900000000000mmmmmmmmmmmm099888888999990009",
"797763368900000000ZZCCCCCCCVCCCC999987777999990099",
"797763368900000000mmmmmmmmmmmmmmm99987776999990099",
"7977633690000000mmmvvvvvvvvlvvmmmmmm87666999990099",
"79776336900999mmmmvmmmmmvAAAAAvmmmmmm7666999990099",
"79676337900999mmxvmmmmmmvAAAAmmvmmmmm7666999999999",
"99796336999999mmvbmmmmmmvAAFHmmvmBmmm7632670eq0999",
"9079633699999mmvmmmmmvxvvvvmmmmAvxmmmm632670000099",
"9099633699LLmmvmmmmmvvvvvvvvvmAAmVvmmmKK3569009999",
"9099633699LLmmvmmmmmvvvAvmvvvAAmmmAmmmKK3367999999",
"9009633699LLmmvmmmmAvvvAvmmJAAmmmmAmmmKK5357990000",
"9009633699LLmmvmmmmAvvzAvmmSAGmmmmAmmmKK6237900000",
"0009633699LLmmvmmmAAvvxvvvvJAmmmmmAmmmKK623790000w",
"0w09766799LLmmvmAAAAAvvvvvvvvmmmmmAmmmKK6240000000",
"0r09999999LLmmvAAAAAmmmmvAvvvmmmmmAmmmKK6269eq9900",
"0r09999999LLmmvAAAAmvvvAvmvvvmmmmmAmmmKK6269qq9900",
"0r09999999LLmmvAAAAmvvvAvmvvvmmmmmAmmmKK5269eq990w",
"0r09999999LLmmvAAAmmvvvvvvvvvmmmmmAmmmKK5269eq000r",
"0r0999999999mmmvmmmmAvxvvvvmmmmmAAmmmK636269eq000r",
"0r09999999999mmmxvmAAmmmvmmmmmmAmmmmK7636269eq000w",
"9r99999999999mmmmVxSmmmmxmmmmmGmmmmmK7336269e00000",
"e900099998788mmmmmvAmmmmvmmmmmAmmmmmK6336670ee000q",
"e9q00999977778mmmmmvmAJAAAAAAAmmmmKK0644669wrrw0q9",
"09q0099987777778VmmmmmmmmmmmmmmmKKrr0644699wrrw009",
"e0q009897766677899mmmmmmmmmmmmKKrrrr0644600rrew009",
"gqq009887666667799nnCCmCCCCmCCDDrrrr0644690rrww000",
"ge000987766366678909mmmmmKKKKKrrrrrr064460wrrw0w09",
"w0000977763336678908906226grrrrrrrrr064460errw0wq0",
"809e0977766236678909907226gtrrrrrrrr06346werrw0we0",
"8u000877797333667999999000tgggrrrwww06226wwwwwwww0",
"5e000877898666667799999000errrrrrrrw0044600000000w",
"<wu009889009877777999990000wrrrrwww0w096600000000w",
"=8g00999900099889999999000wwwww099000099699999990w",
"#2w09999900999990099999000rrww99967900906999999908",
"o&388999999998990099999000eew099946909996999999087",
" O;7789009099879990000000000w0090440w9990677777773",
".X+:38ew0099997777000ww000wwwwww09900999999766973>"
};
