/* XPM */
static char *a8bc15ccfcaa49e0c6ed72ee25e7eebcEDQH2dsykmbYiKdM[] = {
/* columns rows colors chars-per-pixel */
"50 50 159 2 ",
"   c #1D2A42",
".  c #232D44",
"X  c #2B2F45",
"o  c #252E49",
"O  c #2A2E4B",
"+  c #253145",
"@  c #2B3147",
"#  c #26324B",
"$  c #2A334D",
"%  c #27384C",
"&  c #2C394F",
"*  c #323248",
"=  c #31394F",
"-  c #2F2E50",
";  c #263450",
":  c #2C3551",
">  c #2D3A52",
",  c #313553",
"<  c #323C54",
"1  c #383D56",
"2  c #353D5A",
"3  c #393E5B",
"4  c #35425A",
"5  c #3A435D",
"6  c #3C485C",
"7  c #364660",
"8  c #3B4661",
"9  c #3E4A64",
"0  c #404761",
"q  c #434A65",
"w  c #434D69",
"e  c #484F69",
"r  c #4A5267",
"t  c #45546C",
"y  c #49556E",
"u  c #4F5C6C",
"i  c #4B5671",
"p  c #4D5B75",
"a  c #4E5778",
"s  c #4F5E78",
"d  c #515C74",
"f  c #525E79",
"g  c #53627C",
"h  c #59637D",
"j  c #566580",
"k  c #596681",
"l  c #576882",
"z  c #5C6C85",
"x  c #5E6E89",
"c  c #5E7186",
"v  c #5E7189",
"b  c #5F7291",
"n  c #616C85",
"m  c #686D85",
"M  c #616E8A",
"N  c #637186",
"B  c #62728B",
"V  c #69738D",
"C  c #647591",
"Z  c #6B7691",
"A  c #657992",
"S  c #6C7B94",
"D  c #6F7F98",
"F  c #737E96",
"G  c #707F9A",
"H  c #6F8196",
"J  c #6E8199",
"K  c #708197",
"L  c #72829B",
"P  c #7A869E",
"I  c #75889E",
"U  c #7A889C",
"Y  c #7381A0",
"T  c #7987A0",
"R  c #7C8CA4",
"E  c #7F8FA9",
"W  c #7D92A7",
"Q  c #7E91A9",
"!  c #828FA5",
"~  c #888FA6",
"^  c #818FA9",
"/  c #8391A6",
"(  c #8393AB",
")  c #8995AD",
"_  c #8799AD",
"`  c #8899AE",
"'  c #8998AF",
"]  c #999AA7",
"[  c #8596B0",
"{  c #8B95B0",
"}  c #879AB3",
"|  c #8A9AB1",
" . c #8C9BB2",
".. c #8C9EB3",
"X. c #899AB4",
"o. c #899DB5",
"O. c #8A9DB5",
"+. c #8B9FB7",
"@. c #8F9EB5",
"#. c #8E9FB9",
"$. c #929EB3",
"%. c #929FB5",
"&. c #929EB9",
"*. c #8BA0B6",
"=. c #8DA0B5",
"-. c #8DA0B8",
";. c #8EA3B9",
":. c #8FA0BA",
">. c #91A0B5",
",. c #92A0B6",
"<. c #91A2B6",
"1. c #92A0BA",
"2. c #90A2BA",
"3. c #90A5BA",
"4. c #97A6BB",
"5. c #92A3BC",
"6. c #9AA7BE",
"7. c #97A9BD",
"8. c #9AAABD",
"9. c #94A2C7",
"0. c #98A6C0",
"q. c #96AAC1",
"w. c #9BA9C1",
"e. c #9DAFC2",
"r. c #9EB1C4",
"t. c #A1ADC2",
"y. c #A3B3C5",
"u. c #A3B4C9",
"i. c #AAB7C8",
"p. c #A4B8C9",
"a. c #ACBACC",
"s. c #B2BFCF",
"d. c #ADBCD1",
"f. c #B2BDD2",
"g. c #AEC0D3",
"h. c #AFC3D4",
"j. c #B3C3D5",
"k. c #B6C8D6",
"l. c #B6C3D9",
"z. c #B6C5D8",
"x. c #B8C5D8",
"c. c #BAC7DA",
"v. c #B7C8DD",
"b. c #BACADD",
"n. c #BCCDDD",
"m. c #BFD1DF",
"M. c #BBCAE0",
"N. c #BDCEE0",
"B. c #BDCDE2",
"V. c #BED1E2",
"C. c #C0CDDE",
"Z. c #C0D1DF",
"A. c #C2CFE2",
"S. c #C2D3E3",
"D. c #C3D5E8",
"F. c #CAD6EA",
"G. c #C6D9EB",
"H. c #CBDAEC",
"J. c #CADAF0",
/* pixels */
"@...N x : $ V -.=.@.@.@.1.x x # $ >.=.K B Z -.-.@.=.B B . X ( @.@.@.%.%.@.1.1.: # M B @.@.@.@.%.%.-.",
"%.@.m B > , V 1.=.=.=.1.1.B B # # @.*.L B S -.-.-.1.B B . @ _ 3.1.1.=.=.-.1.5.# @ B B -.1.-.-.1.1.1.",
"n x @ # # # O # t 1.1.z v # # O @ x z R -.( B v v B # o $ # z v ( -.-.-.O.x B $ # # # z v ( -.R v x ",
"N B $ ; # $ ; # t | >.B B % $ < : B B R O.( x z x M $ @ # $ z B ( O.O.O.X.x M $ # # > n x Q 1.Q v z ",
"o # X $ z V ^ 0.K .   # # w.4.$ # # O i z s # o # o # @ # : # # g z z z k O O $ @ # : # . p x L -.-.",
"X ; * # z v R 1.K $ $ $ $ >.@.% % @ @ p x s : O $ $ $ # $ $ # $ g z v v z ; # $ : $ $ , $ d M K O.-.",
"M z $ ; : > R N.g.| { ) ' $ > z B > @ ; > $ : $ @ #  . .M.c.5 @ : ; > : : : . z.b.z z : $ # ; ; > > ",
"M n $ ; $ > ! V.j.@.@.-.1.# # B z ; # # $ $ $ $ + . >.>.S.S.5 @ # # # $ $ $ . b.V.z M # @ # # # $ 1 ",
"{ | ~ ^ 1 @ d H R @.-.-.1.o # j.j.( ^ / / ( / R @ # 4 4 K S R ^ ^ ^ Z $ 1 a.a.>.4.} | < @ # # n f.a.",
"&.-.>.=.> $ i x S @.-.-.1.# = S.S.>.=.*.=.=.-.O.; $ O # B v X.#.=.=.T @ 1 S.V.1.@.@.@.; @ # $ V S.S.",
"#.1.Y J > $ 2 q g @.-.J L , 1 d.r.=...=.=.-.>.@.p d : $ 9 9 S K L L N $ , u.r.-.-.J G % # S $.>.i.u.",
"&.-.M z ; : # : y @.-.A Z 5 4 %...@.=.=.=.#.%.@.x M : # # $ z v B B s $ < >.O.1.-.x M ; X $.F.j.4.@.",
"1.=.M c > # # # q F S g h 4 o L F 1.@.( E E F L s s 5 5 # @ i s s f w # > ( Q @.-.x B ; 6 ! u.r.=.=.",
"#.=.M c > # @ $ @ @ < 5 5 $ $ $ # 1.@.L B f # $ # # B B # @ $ $ # # # # # B z 1.-.x B ; # M B J -.=.",
"} _ k g $ $ 1 0 0 5 r q e # $ < 2 ^ ( A l p # $ $ # B z 8 6 5 5 3 , , # $ z g ( Q l k 4 2 p z S O.| ",
"V B @ ; # & U S.z.4.4.7.@.# # B B o O # : # @ @ # # x c S.N.4.@.S z g # $ # : # o # $ %.-.i # 9 B v ",
"n n * $ < & / n.j.7.7.=.1.# & n z > < < < < > > @ @ B B S.b.1.#.D B g $ @ > = > > < > ..1.i # 9 M z ",
"$ # @ # l.A.i.4.7.3.=.=.=.=.=.$ $ A.S.y.@.#.>.| @ X V.N...>.#.@.1.1.T @ < S.Z.O...S.S.=.&.p # # $ # ",
"X % @ # j.S.a.4.>.@.=.@.-.5.1.# $ S.S.u.#.#.1.@.$ X D.G.' @.#.X.#.1.P $ 1 D.H.3.=.D.S.>.1.t # # $ # ",
"* # V n ..4.>.7.=.@.=.} -.z v $ $ z N R 1.^ B z # @ c B >.@.#.-.D B g $ : v z =.=...=.@.-.J v i # @ ",
"X # N v O.q.5.-.O...3.1.1.x v : # z B R -.( B M # # B B 5.=.=.-.S B g : , B z -.1.-.@.1.-.J B i # # ",
"m C X # z x R -.@...=.v v % # # # $ # t x s # # : $ # # B c v v v v g # $ # # c v -.-.v x 7 # 9 M B ",
"n b @ # z z R 1.-.=.1.z B # # $ @ # @ p z f O : ; : # # Z z x x x x g $ $ $ # z v #.-.z z 8 # 9 B V ",
"5.5.$ : # . t z z z v # O O # B A > # # . # : : B B $ $ # # # # @ # # @ $ $ $ o # o o o . @ $ B G.G.",
"O.>.O # @ : i x v v B : : $ # B B $ @ @ # # : ; B B $ o $ @ @ $ > @ # $ @ # # $ @ $ # $ > # @ n N.Z.",
"@.@.{ ) < # $ > > ; < ; $ n z @._ j.j.8.) ) { ^ ; > , $ N.c.c.c.8. .K $ < z.j.) / { { n z 8 # n S.n.",
"&.O.1.O.& # $ @ $ $ # : : V z -.*.D.S.u.@.@.-.| ; # $ $ H.m.S.S.y.>.L # < S.S.>.=.1.-.B N q # n S.S.",
"%.@.S B > $ F f.t./ / # # 1 > b.N.e.4.>.1.-.=.@./ ^ O $ H.S.r.7.>...>.^ P 5 5 B V -.1.[ O.i # d 7.7.",
"-.#.M M > # ! n.h.=.@.$ # @ @ n.S...@.@.@.-.=.=.-.3.@ = H.S.4.1.1.1.-.-._ # o z x #.-.-.=.y # d >.=.",
"Y K q 9 / ' 7.r.7.=.>.Z S o @ t.y.>.@.=.=.=.=.=.O.3.# < f.y.=.@.@.@.O.L S # O 9 9 1.@.L L 9 # w K H ",
"C z O @ c.n.y.=.1.=.@.@.%.o # %.=.@.=.=.=.=.=.=.*.3.0 q 6.@...=.=.1.( v z # $ @ # 1.O.B v 8 # 9 v z ",
"p d - @ u.j.e.=.@.@.O.Q R # $ R R O.O.=.=.=.=.@.( @.1 0 F S Q W O.=.( v z $ @ @ $ F S f s 4 # 4 s s ",
"; # , $ ) @.@.=.-.-.1.v B # # B B -.-.-.-.@.-.-.S K 5 $ $ # z B _ 1._ v x # $ @ # # $ # # @ $ $ O # ",
"3 4 O # R [ | | | ( ( l z # $ k k O.X.@.-.1.@.-.V B $ @ @ # f k P ^ I k g # $ 5 9 4 4 9 6 6 5 2 # # ",
"1.#.. ; z z B B p # $ $ $ @ : # # M B R -.( S S & $ # : @ # # # # $ # # # @ . S.S.=.@.N.S.y.@.Z ; $ ",
">.1.$ ; k z n M p # X $ = $ : $ # z M R -.| Z B # # ; # # # # @ < 1 < # # # + n.V...@.M.n.7. .B # X ",
"$.#.$...> # $ # # # . M.S...&.# # # # i x j 5 $ # # M B # $ $ $ 7.S.t.$ > n.S...>.@.%.%.=.y # # $ # ",
"$.-.$.=.> $ # ; # . . N.D.@.&..   o # p B k . . @ # V A     . . 7.D.6.. > H.H.| >.@.%.%.=.y # o o . ",
"$.#.$.-.V z w $ d b.S...@.-.} 1.&.: # # $ t C.c.$ @ # < F.n.>.' O.1.O.@.O.$ X @.@.@.%.%.-.i # p #.1.",
"$.*.1.-.V B q $ h N.V.@.@.@.O.-.@.> @ # + u S.v.% % $ $ J.V.3.-.-.-.O.-.} # . @.=.@.#.#.O.y # s -.*.",
"-.=.M x > # # # t ..1.=.-.1.-.v z # # ) S.j.O.>.3.7.$ $ 1...=.-.@.=.( v z $ o @.-.-.-.v z 8 # 9 Z z ",
"O...M x > # # ; t @.@.@.@.#.@.B B $ $ / N.j.O.%.@.1.@ $ 5.-.-.-.=.=._ x z : o @.-.@.-.B v 8 # y S B ",
"n z O o # o V 5._ B B . . . . $ . # # y z A 1.@.z B # : 5.=.V z z z g # O , O z z 1.@.1.5.y 5 < 8 o ",
"M x O @ # : M 1.Q z n # @ # @ @ $ $ # y x A 1.@.B B # : 5.=.V B v v g # $ : O x x #.@.@.-.h 3 5 < o ",
": $ # # @ # i B g : , @ # | _ k.j.$ @ $ > : < < : > $ # V B < $ < > : # # $ # & > < < B H w < : # @ ",
", $ $ $ @ : i z g : # $ & @...n.n.# $ # # o > # @ $ @ $ B z > @ # X $ $ # $ # $ % # $ S S w ; # $ # ",
"l.l.{ ( < @ > > > $ $ d.f.@.-.4.>.g z 5 : d f.l.( ( @ @ > $ # @ $.j.y.(  .j.j.( ' o 3 q 4 g z R j.d.",
"V.V.@.O.> # # # 3 # + N.N.@.#.1.#.z x 9 @ d S.N.>.3.@ $ # # $ # 4.V.j.%.1.S.S.@.-.5 5 2 2 s z ( S.S.",
"i.y.&.-.s p 4 3 5 1 % r.y.=.-.L L R R i $ r i.y.L I # $ $ @ P / 8.p.8.#.#.i.y.-.q.d h < # I 7.8.p.u.",
"] 9.1.-.x C a 2 8 o # @.-.-.-.v v O.O.g # w 5.O.v B # : $ $ s.n.e.1.O.O.-.5.-.5.3.S C ; # >.Z.d.1.-."
};
