/* XPM */
static char *_0a839c40f0848b99c363d4515c92a02xvJPbcVdNPBqUv1Z[] = {
/* columns rows colors chars-per-pixel */
"50 50 157 2 ",
"   c #04121D",
".  c #322016",
"X  c #31231A",
"o  c #031424",
"O  c #0C1C26",
"+  c #03162F",
"@  c #071828",
"#  c #0A1B2B",
"$  c #091F31",
"%  c #06202C",
"&  c #0E202F",
"*  c #0E2131",
"=  c #08263E",
"-  c #0B293E",
";  c #132434",
":  c #11263B",
">  c #172C3F",
",  c #3B2B21",
"<  c #422F23",
"1  c #483222",
"2  c #433429",
"3  c #4F3A2C",
"4  c #543D2D",
"5  c #4C3D31",
"6  c #533D31",
"7  c #5D4536",
"8  c #55443A",
"9  c #5F4A3B",
"0  c #604736",
"q  c #644C3C",
"w  c #6A503F",
"e  c #072745",
"r  c #0A2744",
"t  c #052B44",
"y  c #0A2A43",
"u  c #032D4C",
"i  c #082C48",
"p  c #102C44",
"a  c #022E53",
"s  c #0C3A5C",
"d  c #153854",
"f  c #133F5E",
"g  c #113E63",
"h  c #12425E",
"j  c #0C476E",
"k  c #0D496E",
"l  c #144364",
"z  c #11476D",
"x  c #12486D",
"c  c #0B4771",
"v  c #064A76",
"b  c #0D4972",
"n  c #054B7A",
"m  c #104B72",
"M  c #12537D",
"N  c #644F41",
"B  c #645244",
"V  c #6B5443",
"C  c #6F5749",
"Z  c #725643",
"A  c #755946",
"S  c #795A47",
"D  c #755C4A",
"F  c #7A5D4A",
"G  c #7D614D",
"H  c #7E6350",
"J  c #796758",
"K  c #7D6D5E",
"L  c #787169",
"P  c #67707B",
"I  c #6D7379",
"U  c #81644E",
"Y  c #836652",
"T  c #886752",
"R  c #856955",
"E  c #886A56",
"W  c #856C5A",
"Q  c #896E5A",
"!  c #847267",
"~  c #817469",
"^  c #807974",
"/  c #0E5384",
"(  c #0F5689",
")  c #0D588A",
"_  c #135683",
"`  c #165A86",
"'  c #195985",
"]  c #1A578C",
"[  c #165989",
"{  c #195B89",
"}  c #205982",
"|  c #1C6694",
" . c #18679C",
".. c #2A6B9A",
"X. c #1F71A6",
"o. c #1E70A9",
"O. c #236FA3",
"+. c #2570A0",
"@. c #2874A6",
"#. c #2777A9",
"$. c #2B76A9",
"%. c #337EAE",
"&. c #317DB4",
"*. c #607889",
"=. c #477FA7",
"-. c #3383BA",
";. c #3B8BBD",
":. c #4080AC",
">. c #5189AC",
",. c #4686B2",
"<. c #638FAA",
"1. c #6D96A0",
"2. c #6D96AF",
"3. c #6A99B5",
"4. c #689CBB",
"5. c #2F87C2",
"6. c #2C85CB",
"7. c #3187C3",
"8. c #378EC7",
"9. c #3D8EC3",
"0. c #358FCD",
"q. c #3A8FCB",
"w. c #2E92CE",
"e. c #3690C7",
"r. c #3F94C4",
"t. c #3491CD",
"y. c #3590CE",
"u. c #3A92CD",
"i. c #258DD5",
"p. c #368ED1",
"a. c #3C8ED2",
"s. c #2E92D4",
"d. c #3291D2",
"f. c #3391D2",
"g. c #3491D0",
"h. c #3891D0",
"j. c #3C98D3",
"k. c #4595C0",
"l. c #4392CC",
"z. c #5497C2",
"x. c #4798D2",
"c. c #529ED2",
"v. c #5EA6CE",
"b. c #54A2D4",
"n. c #5FA6D1",
"m. c #5BA9D7",
"M. c #5EA8D6",
"N. c #5EA6D8",
"B. c #5FAADC",
"V. c #64A2C5",
"C. c #6AA8C7",
"Z. c #62A6CA",
"A. c #62A6CE",
"S. c #6FA0C8",
"D. c #62A8CD",
"F. c #62A5D1",
"G. c #62A9D3",
/* pixels */
"2 5 5 3 4 7 q C D H H H J J W W W W W R R R R R R R W W W W Q Q W R W W W Q W J H H H D C q 4 1 < 2 ",
"2 5 5 q w A G R W W R R W Q W W W R Q Q Q 1.2.3.4.V.Z.Q Q Q R R R R R R R W W R R R R R H D w 0 6 2 ",
"2 8 B H H R R Q Q Q Q Q Q R R R R R Q Q Q G.M.M.M.M.n.Q Q Q R R Y R R R R R W R R H Y R R Y Y F C 8 ",
"3 B J H Y R R R Q Q Q Q R R R R R R R ~ Z.d.0.y.g.0.y.b.G.Q Q R R R R R Y Y R R Y R R R R R R R R C ",
"V G G Y R R R R R Q R R R Y Y Y Y Y 0.M.F.' ' ' ' ' g.y.d.A.R R R Y Y Y Y Y Y Y Y Y Y Y Y Y Y Y Y G ",
"A U Y U Y Y R R R R R R R Y Y Y Y *.C.v M ' ' ' ' ' ` [ ) y.<.R Y Y U U U U U U U Y Y Y Y Y Y Y Y U ",
"F Y Y U U U Y Y R R R Y Y Y Y Y Y e.B.v ' ' ' ' ' ' ' ' ' 0.A.K Y U U U U U U U U U U Y Y Y Y Y T T ",
"G U U G H U U U Y Y Y Y Y Y Y Y Y d.A.v ' ` b b z b ' ` ' d.A.L H U U U U U U U G G U U U Y Y Y Y Y ",
"G G G G G H U U U Y Y Y Y Y Y I u.V.` ' ' c k 9.y.j c M ' ' g.j.A.H H H H H H H H H U U U U U U U U ",
"G G F G G G H U U U U U U U Y 9.y.A.` ' ' c y.[ _ c j M ' ' d.l.A.G G G G G G G G G G H H U U U U G ",
"H G G G G G H U U U U U U U Y 8.8.F.{ ' ' x 0.( j c c M ' ' q.k.v.G G G G G G G G G G G H H U U U G ",
"G G G U G F F G U Y Y U U Y a.A.F.' ' ' ' b l i y b c M ' ' '  .d.N.G G G H H H H H H H U U U U U U ",
"G Y G Y G F F G U Y Y Y Y Y 0.A.F.' ' q.y.j k u y y.y.@.b { ' | y.A.H H H H U U U U U U U U Y Y Y Y ",
"G U G U G F F G U Y Y Y Y Y 0.A.F.' 8.p.y.k ; %.6.d _ &.-.' ' | g.A.U H H H H H H U U U U U Y Y Y U ",
"G U G G F A A F H U Y Y Y Y 0.A.F.[ y.g.w.c r ;.q.- b $.y.' ' | 0.A.U U H G G G G U U U U U Y Y U U ",
"G U G G F A A F H U Y Y Y Y 0.A.F.[ y.n v b r t r y k j v ' ' | g.A.U U H G G G F U U U U U Y Y U U ",
"G U G G F A A F U Y Y Y Y Y G./ [ { y.v m c y y y y c j c ' ' ' ' 0.U U H G F F F U U U U U Y Y U U ",
"G U G G F A A F U Y Y U G U M.M ' ' d.v c m y y y y j m x M ' [ ' y.Y U G G F F F U U U U U Y Y U U ",
"G U F G F A A G U Y Y U G s.n._ ' } d.n c b y y y i j m k c ' [ ' y.U U G G F F F U U U U U U U U U ",
"U U G U F A A F U U U U U y.n._ [ y.0.v c v y > o t d.p.d.x ' [ ' y.U U U G F A Z F G Y R T Y U U U ",
"U Y G U F A A F U U U U U y.F._ [ y.y.v c r y o * g.y l v y.[ { ' y.Y U U G F A Z F G Y Y Y Y Y U U ",
"U Y U U F A A F U U U U U y.F._ ` 9.0.v b = : : @ =.y f k g.` [ ' y.Y U U G F A A D F U Y Y U U U U ",
"U Y U U F A A F U U U U U y.v._ ' ' d.v c y o o o ; y h k g.` [ ' y.Y U U G A A A A F G U U U U U U ",
"U Y Y U F A A F U U U U U y.v.M ' ' g.n b y @ ; @ ; r s m c y.7.` y.Y U U F A A D A D G U U Y Y Y Y ",
"U Y Y U F A A F U U U U U y.G.M ' ' k 9.0.p ; ; @ @ i l k m y.5.` y.Y Y U F Z A F Z A G U Y Y Y Y Y ",
"Y Y Y U F A A F U U U U U h.F.M ' ' c q.y.u o ; * * r s j c d.5.` y.Y Y U S Z A F Z A G U Y Y Y Y T ",
"Y T Y U G F F G U U U U U d.n.M ' ' c u.g.s.@ # o # r l j j d.5.` y.Y Y U F Z A F Z F Y Y Y Y Y Y Y ",
"Y E Y U U U U U U U U U U d.n.M ' ' c j k - @ # # ; i s c c d.5.` y.Y Y U G A A F Z F U R T U U Y Y ",
"Y E Y U U U U U U U U U U d.F.M ' ' c m j y @ * % O i g c c d.5.` y.Y Y T U F A F Z F U T T Y U Y Y ",
"Y E Y U U U U U U U U U U d.F.M ' ' j c j r $ & o + e s c j d.5.` y.Y T T U F A D Z F U R T Y U Y T ",
"Y E Y U U U U U U U U U U d.v.M ' ' c c c - - $   g.- h c c d.7.' y.Y T R U F A D Z F U R T Y Y Y E ",
"Y E Y U U U U U U U U U U d.v.M ' ' j j c b y $ O d.k k c j ' ] { y.Y T R U F A F Z F U R T Y Y Y E ",
"Y E Y U U U U U U U U U U d.F.M ' ' c c c c y y p $ e.+.j c 8.-.{ y.Y Y Y G F A F Z F U R T Y Y Y T ",
"U E U U U U U U U U U U U 0.D.M ' ' b j c c r y i - s.X.c b q.-.' y.Y Y U G A A F Z F U R Y Y Y Y Y ",
"R U Y Y Y U U U U H G H H H m._ { ' ' b c c y y y y d.O.b ' ' ` } q.E E Y F A S F F G Y R R Y Y Y T ",
"R U T Y Y U U U U G G G G H 0.A.F.' ' b c c y y y y s.o.c ' ' | y.A.E E Y F S S F F U T E E T Y Y U ",
"Y U T Y Y U U U H G G G G G 0.A.F.' ' b c c y y a p./ M c ' ' | y.A.E E Y F S S F G U T E E T Y Y U ",
"R Y T Y Y U H U G G F F F G h.A.F.' ' k j c y y - d.b c c ' ' | y.A.E E Y F S S F Y Y R E R T Y Y U ",
"Q T T Y Y U H H G F F F F F h.A.F.' ' 9.q.k k a - d.c c c ' ' | g.A.E E Y F S S F U Y R E R T Y Y Y ",
"Q R Y Y Y U H G G F F A F F d.v.F.' ' ' ` z q.y.y.z c M ' ' `  .g.F.E E Y F S S F Y T E E T Y T Y U ",
"R Y Y Y Y U G G G F A A A F F c.b.,.' ' ` z w.#...b c M ' ' $.:.z.E E E Y F S S F Y R E E T Y T T Y ",
"H Y U R Y U G G G F F Z A F F 0.u.A.` ' ' x y.[ c c c M ' ' d.u.A.E E E Y F A S F T R E R T T T R Y ",
"H W Y Y Y H G G G U G A A A F 6.a.A.` ' ' k c j j c c M ' ' 0.x.v.T T T Y F Z Z F T T T T T T T T Y ",
"D R Y Y Y H G G H U H F F F F F G y.F.v ' ' c c j c ' ' ` y.M.^ E E E T Y Y S S G Y Y Y T Y Y Y Y R ",
"V R W Y Y U H H U Y Y U H G G G G a.F.v ' ' b b b b ' ' ' 0.Z.! T T T Y T Y G F F Y Y Y Y Y Y Y Y R ",
"9 H Q Y Y U U U U Y Y Y U U H H U i.Z.v { ' ' ' ' ' ' ' ' d.v.R U U Y Y Y Y U U F U U U Y Y Y Y Y R ",
"4 Z R Y U U U U U Y Y U U U U U Y Y s.B.S.' ' ' ' ' y.g.0.Z.U U U F G U Y Y U Y F U U U U U U U Y H ",
"< 7 A H H U U U U U U U U H U U Y Y U J a.q.y.y.q.q.u.b.Z.Y U U F S F U Y U U U F U U U U U U Y H G ",
". 1 q G G H U Y Y U Y U U H G U U U Y Y P r.9.9.9.9.9.>.~ Y Y U Y S S Y T U U U Y G G G G G G G G A ",
"X , 2 w A H R T Y Y U U U G G G G G Y Y Y Z.n.n.n.n.F.R R R R R Y F U Y Y U U U U U U G F G U G A N "
};
