/* XPM */
static char *aaff0a15985746f3c71bdc6b1ba42024feEbu5LtQLcCf7fh[] = {
/* columns rows colors chars-per-pixel */
"50 50 55 1 ",
"  c #322016",
". c #31231A",
"X c #3B2B21",
"o c #422F23",
"O c #483222",
"+ c #433429",
"@ c #4F3A2C",
"# c #543D2D",
"$ c #4C3D31",
"% c #533D31",
"& c #5D4536",
"* c #55443A",
"= c #5F4A3B",
"- c #604736",
"; c #644C3C",
": c #6A503F",
"> c #644F41",
", c #645244",
"< c #6B5443",
"1 c #6F5749",
"2 c #735643",
"3 c #755A46",
"4 c #795A47",
"5 c #755C4A",
"6 c #7B5E4A",
"7 c #7D614D",
"8 c #7E6350",
"9 c #81644E",
"0 c #816250",
"q c #816652",
"w c #856550",
"e c #876751",
"r c #846753",
"t c #826755",
"y c #866754",
"u c #886752",
"i c #826853",
"p c #836854",
"a c #846854",
"s c #856B55",
"d c #856C56",
"f c #886953",
"g c #886855",
"h c #886C57",
"j c #806858",
"k c #856B58",
"l c #836C58",
"z c #876D5A",
"x c #826B5C",
"c c #836C5D",
"v c #866C5C",
"b c #8A6C59",
"n c #896E58",
"m c #8B6F5C",
"M c #8D715D",
/* pixels */
"+$$@#&;158888jxcxjjpppppppvvvvzzlpjjjzj888851;#Oo+",
"+$$;:37tkkspkzvvkpzzznnnnzzzzzdsppttpkkpttpp85:-%+",
"+*,88pdzzkkzzddppshnmMMMMmnnhhssqssttskstqqssqq61*",
"@,88qpsdnnnhdsppspsshhnnhnnnhhhsssssqqsstsksssspt1",
"<77qssssshsssqqqqqpsssssssdq7qsspqqqqqqqqqqqqqqqq7",
"39q9qqsssssssqqqqqipppppppsq77qiqq9999999qqqqqqqr9",
"6qq999qqsssqrqqqqqqqqqqqqip76478q9999999999qqqqqss",
"79978999qqqqqqqqqqqqqqqqqqq733368999999999999qqqqr",
"777778999qqqqqqqqq99999999q63226788888888899999999",
"77677789999999qqqq99999999963223777777777778899997",
"87777789999999qqqq99999999974224677777777777889999",
"797976679qq99qqqqq99999qqqq97666677778888888999999",
"7q7q76679qqqqqqqqq99qqqqqryrq90977888899999999qqqq",
"797976679qqqqqqqqqqqrrrrrygyrq9909988888899999qq99",
"7977633689qqqqqqqqqrrryyyysyrrq999998777799999qq99",
"7977633689qqqqqqqqqrrrsgggssyrrqq9998777699999qq99",
"797763369qqqqqqqqq9rrrygggyyyrrrqq990766699999qq99",
"797763369qq999999999rrygggyyyyrrqqq90766699999qq99",
"796763379qq9999999999rygggyrrrrrqr9997666999999999",
"9979633699999999994469rggsssyyrr9r999763267qssr999",
"9079633699999999994469rgssyyyyrrrrr99763267qrrrr99",
"9r99633699999999996679rssyyyyyrrrr9997633569qq9999",
"9r9963369999999999669rrssgyyyyrrrrr997433367999999",
"9r0963369999999999779rrsggssyyrrrrr99633535799rrrr",
"9r0963369999999999999rrgggssyyrr999996236247999rrr",
"rr096336999999999999rrrgggssyyrrr999942362479rrury",
"ryq976679999999999qqqrrggggyyyrrrrrr962362489rrurr",
"rgq999999999999qqqq909ryyyyyyyyyyrr997336269ss9rrr",
"rgq999999999999qqq90760rrryyyyyyyrrrs9636269ssrrrr",
"rgq999999999999qqqq06679ryyyyyyyyrrfs9635269ssrrry",
"rgq999999999999qqqq96679ryyyyyyyyrrfs9635269ss9rrg",
"rgq999999999999qqqr9960rssyyyyyyyrrss9635269rr99rg",
"rgq999999999999qqqq9999ryyyyyyyyyrrrr7636269ssrr9r",
"9g9999999999999qqq9979qrrryyyyyyyyrr97336269srrr9r",
"s9rqq9999878888899799769yggssyyyysggr633667rssrrrr",
"s9rrq9999777788888799646qggggyyygsggr644669yggyrur",
"q9frq99987777778897997447rggggyyggggr644679yggrrr9",
"srfrq979776667789999974240ggggsgggggr64460qsgsyrr9",
"nfurq977766666779999996226hgggggggggr64469rsgsyrrr",
"ngrrq9777663666789q99q6226hgggggggggr6446qyggyryr9",
"trrrq9777633366789q89r6226ngggggggggr6446rsggyrysr",
"8q9sq9777662366789q99r7226nhggggggggr6346ysgsyrysr",
"8kqrq877797333667999999qrrhnnngggyyyr6226yyyyyyyyq",
"5srqq877898666667799999qrrggggggggsyr0447rrrrrrrrt",
"<pkqq9889qq987777799999qrrryggggyyyryr966rrrrrrqqt",
"=8nqq9999qqq99889999999qrryyyyyr99qqrr9969999999qt",
"#2tq99999qq99999qq99999qqrsgyy999679qr9069999999q8",
"o&38899999999899qq99999qqrsyyr996469r9996999999087",
" O;7789qq9q9987999qqqqqqqqrryrq9044ry9990677777775",
".X+:38syq099997777qqqttqqqttttttq69rr999999767973>"
};
