/* XPM */
static char *_58a368e7fc7412fb8c296f7d89231015ofEpLT7m7ixydXA[] = {
/* columns rows colors chars-per-pixel */
"50 50 222 2 ",
"   c #020202",
".  c #070607",
"X  c #0C130D",
"o  c #17140D",
"O  c #150F11",
"+  c #0E1816",
"@  c #131313",
"#  c #161717",
"$  c #191919",
"%  c #271B0E",
"&  c #35180E",
"*  c #322218",
"=  c #151D2C",
"-  c #181C28",
";  c #141D31",
":  c #191D32",
">  c #17212D",
",  c #192133",
"<  c #242526",
"1  c #2D2C2C",
"2  c #362927",
"3  c #342D32",
"4  c #5F1F1E",
"5  c #5C2F0F",
"6  c #5E3109",
"7  c #462C1B",
"8  c #5A231E",
"9  c #5C3412",
"0  c #5A3617",
"q  c #632E0A",
"w  c #693613",
"e  c #663816",
"r  c #751C25",
"t  c #422F23",
"y  c #4B3627",
"u  c #433429",
"i  c #543D2D",
"p  c #4C3D31",
"a  c #523E31",
"s  c #692523",
"d  c #7A2823",
"f  c #733333",
"g  c #77491B",
"h  c #764A1E",
"j  c #5B4638",
"k  c #754727",
"l  c #714C28",
"z  c #674B38",
"x  c #794E34",
"c  c #7D4E3B",
"v  c #6A513F",
"b  c #7B523C",
"n  c #1C2C44",
"m  c #1F3358",
"M  c #22314F",
"N  c #233152",
"B  c #293356",
"V  c #23345B",
"C  c #25395D",
"Z  c #283A64",
"A  c #2B3D6B",
"S  c #2C436B",
"D  c #2D4476",
"F  c #2E4A76",
"G  c #2C4479",
"H  c #314478",
"J  c #644F41",
"K  c #7E4A46",
"L  c #685343",
"P  c #6F5749",
"I  c #725643",
"U  c #7D5343",
"Y  c #755946",
"T  c #7A5A46",
"R  c #72574A",
"E  c #755C4A",
"W  c #7A5E4A",
"Q  c #7D614D",
"!  c #7E6350",
"~  c #797676",
"^  c #812824",
"/  c #9A2C27",
"(  c #9D2E2A",
")  c #9B3128",
"_  c #9D3032",
"`  c #A32E27",
"'  c #A4332C",
"]  c #B1322F",
"[  c #AB3430",
"{  c #844A17",
"}  c #96441A",
"|  c #9C4D1D",
" . c #9C531D",
".. c #A14E1C",
"X. c #A3541D",
"o. c #A7631F",
"O. c #9C4F24",
"+. c #855727",
"@. c #955422",
"#. c #86493B",
"$. c #885839",
"%. c #9A5638",
"&. c #A24F23",
"*. c #A55522",
"=. c #A95C22",
"-. c #A85828",
";. c #B15F2B",
":. c #AB4234",
">. c #9F6228",
",. c #8C6335",
"<. c #956F3B",
"1. c #AC6628",
"2. c #B36325",
"3. c #B4642A",
"4. c #B76928",
"5. c #B56D2C",
"6. c #BE742C",
"7. c #BE792D",
"8. c #B86831",
"9. c #B57733",
"0. c #BE7435",
"q. c #C1762E",
"w. c #C3782D",
"e. c #C27533",
"r. c #C47B33",
"t. c #CA7E34",
"y. c #C77C3A",
"u. c #855747",
"i. c #83564C",
"p. c #81644E",
"a. c #8C6148",
"s. c #846652",
"d. c #8B6455",
"f. c #856955",
"g. c #886956",
"h. c #856B5A",
"j. c #896D59",
"k. c #936E57",
"l. c #A76C4D",
"z. c #A76C5D",
"x. c #AA715A",
"c. c #875C63",
"v. c #917966",
"b. c #A76C67",
"n. c #A96F64",
"m. c #A67261",
"M. c #AC7163",
"N. c #AD7767",
"B. c #B77266",
"V. c #C94C48",
"C. c #CB5249",
"Z. c #D1504B",
"A. c #CE7248",
"S. c #DA7E77",
"D. c #CC8436",
"F. c #CD8B34",
"G. c #CC843B",
"H. c #CD8A3A",
"J. c #D28635",
"K. c #D28A36",
"L. c #D3863A",
"P. c #D28B3B",
"I. c #CF9034",
"U. c #D39035",
"Y. c #D5923C",
"T. c #D9933D",
"R. c #DB9B3D",
"E. c #E3A63E",
"W. c #BE8447",
"Q. c #B1957C",
"!. c #CE8841",
"~. c #D58743",
"^. c #D69142",
"/. c #DD9A43",
"(. c #E19D44",
"). c #DCA544",
"_. c #E2A343",
"`. c #E9A547",
"'. c #E3A449",
"]. c #CE947B",
"[. c #E69A67",
"{. c #CAA17D",
"}. c #2C4481",
"|. c #354E88",
" X c #767C84",
".X c #455FAD",
"XX c #4564AA",
"oX c #4363AC",
"OX c #4763B3",
"+X c #778083",
"@X c #B09F91",
"#X c #B4A496",
"$X c #CD9087",
"%X c #E49F8A",
"&X c #EB9E8B",
"*X c #E7A28B",
"=X c #F4BD8C",
"-X c #E9A593",
";X c #F2AE98",
":X c #EBB998",
">X c #FDC594",
",X c #FCC996",
"<X c #FCC79B",
"1X c #FCC99B",
"2X c #CCC1BA",
"3X c #FCCAA2",
"4X c #FACAA4",
"5X c #FDDCB7",
"6X c #F3E0B9",
"7X c #DCD3CF",
"8X c #CCD4D8",
"9X c #F4DFC9",
"0X c #FEE6CD",
"qX c #FDECCC",
"wX c #F7EDD4",
"eX c #F5EED4",
"rX c #FEECD3",
"tX c #FDF2D8",
"yX c #F8F3EA",
"uX c #FCFEF4",
"iX c #F8F8FA",
"pX c #FBFDFC",
/* pixels */
"u p p y i j v P E ! ! ! ! f.h.h.h.f.f.f.f.f.f.f.f.f.h.h.h.h.j.j.h.f.f.f.f.j.f.! ! ! ! E P z i t t u ",
"u p p z v Y Q f.h.h.f.f.h.j.h.h.f.f.j.j.j. . .0.e.e.X.| O.j.h.f.f.f.f.f.f.h.h.f.f.f.f.f.! E L z a u ",
"u j J ! ! f.h.j.j.j.j.j.j.h.h.f.f.f.h...| e.'._._._.U.r.r.*.&.f.s.f.f.f.f.f.h.f.f.! s.f.f.s.! W P j ",
"p L ! ! s.f.f.h.j.j.j.j.h.f.f.f.f.f.@.~.`.'._._._._.E.T.F.K.0.X.f.f.f.f.s.s.f.f.f.f.h.h.f.f.f.f.f.P ",
"L Q Q s.f.f.f.f.f.j.f.f.f.s.s.s.p.| e.w.D.R._._._._._.T.K.P.6.e...s.s.s.s.s.s.s.s.s.s.s.s.s.s.s.s.Q ",
"Y p.s.p.s.s.f.f.f.f.f.f.s. .|  .| &.r.'.P.K.'._._._.P.L.P.q.L.2.O.&.O. .$.p.p.p.p.s.s.s.s.s.s.s.s.p.",
"W s.s.p.p.p.s.s.f.f.f.a. .e.K.D.e.0.~.q.P._.F._.K.F.r.D.H.2.r.K.8.2.L.r.1.$.p.p.p.p.p.s.s.s.s.s.s.s.",
"Q p.p.Q ! Q p.p.s.s.z k e.D.6.t.t.X.r.e.K.r./.7.r.6.H.D.6.e.2.q.| G.y.D.y.1.0 Q Q Q p.p.p.s.s.s.s.s.",
"Q Q Q Q Q ! p.p.p.s.l h ^.e.e.q.q.8.X.4.w.y.F./.6.G.P.6.4.e.2.=.0.y.w.q.D.5.e ! ! ! p.p.p.p.p.p.p.p.",
"Q Q W Q Q Q ! p.p.p.l g !.P.e.r.D.^.8.*.-.o.0.r.5.6.6.=.| X.*.3.P.t.w.y.t.1.9 Q Q Q Q ! ! p.p.p.p.Q ",
"! Q Q Q Q Q ! p.p.p.I k >.^.H.H.Y.Y.G.5.;.*.=.*.*.X.*.X.| X.5.G.Y.Y.P.G.9.@.l Q Q Q Q Q ! ! p.p.p.Q ",
"Q Q Q p.Q W W Q p.s.s.I e 5.R.R.R.G./._.y.5.*.| } } } -.5.y.'.(.y./.I.9.+.k ! ! ! ! ! ! p.p.p.p.p.p.",
"Q s.Q s.Q W W Q p.s.s.s.p.6  .=.r.'.r.E.).E.e.L.e.H.t.^._._._.r._.w.+.w z ! p.p.p.p.p.p.p.p.s.s.s.s.",
"Q p.Q p.Q W W Q p.s.s.s.Q % w g { 4.e.D.T.!.T.P.^.L.Y.P.H.Y.D.w.4.{ e x T ! ! ! ! p.p.p.p.p.s.s.s.p.",
"Q p.Q Q W Y Y W s.p.s.s.Q @ 7 7 7 e +.k h $.<.+.<.,.,.h h $.$.g 9 7 & v ! Q Q Q Q p.p.p.p.p.s.s.p.p.",
"Q p.Q Q W Y Y W s.p.s.s.Q @ 1 < @ @ 1 @   1 1 @ 1 1 $ .   < 3 @ X 1   j ! Q Q Q W p.p.p.p.p.s.s.p.p.",
"Q p.Q Q W Y Y W p.s.s.s.W   1 $   $ @ @ . O o @ 3 1 $ .   % 1 @   @   j ! Q W W W p.p.p.p.p.s.s.p.p.",
"Q p.Q Q W Y Y W p.s.s.p.p.p.    . @ @ @ # + -Xo o 1 $ @ o # @ @     Q p.! Q W W W p.p.p.p.p.s.s.p.p.",
"Q p.W Q W Y Y Q p.s.s.p.p.p.p.a   . + @ iX+ + <X@ 1 $ @ @ pX>X@ b s.p.p.Q Q W W W p.p.p.p.p.p.p.p.p.",
"p.p.Q p.W Y Y W p.p.p.p.p.p.p.p.Y     <XpX@ pX3X1XO 8X~ X pX,Xz.U s.p.p.p.Q W Y R W Q s.f.s.s.p.p.p.",
"p.s.Q p.W Y Y W p.p.p.p.p.p.p.p.p.p.N.-X3XpX<X0XqXtX1X0XpX=X&Xm.s.s.s.p.p.Q W Y R W Q s.s.s.s.s.p.p.",
"p.s.p.p.W Y Y W p.p.p.p.p.p.p.p.p.p.W M.*Xc qXqXqXqXqXQ.#.-Xn.s.s.s.s.p.p.Q W Y Y E W p.s.s.p.p.p.p.",
"p.s.p.p.W Y Y W p.p.p.p.p.p.p.p.p.j.s U M.>Xb c c b K ].<Xz.& U s.s.s.p.p.Q Y Y Y R W Q p.p.p.p.p.p.",
"p.s.s.p.W Y Y W p.p.p.p.p.p.p.p.p.Y ) ;.8 n.1X<X<X3X<X].m.& _ b s.s.s.p.p.W Y Y E Y E Q p.p.s.s.s.s.",
"p.s.s.p.W Y Y W p.p.p.p.p.p.p.T u.%X/ J.s 1Xb m.N.m.u.f r s ( 4XR p.s.s.p.W Y Y W R T Q p.s.s.s.s.s.",
"s.s.s.p.W Y Y W p.p.p.p.p.p.p.W d.yX^ :.-.#.eX9X:X6XK %.t.4 _ rXb s.s.s.p.T I Y W R T Q p.s.s.g.s.s.",
"s.s.s.p.Q W W Q p.p.p.p.p.p.U k.$XtXd V.2./ tXrX5XB.W.y.A.:.( yX{.T s.s.p.W Y Y W R T Q p.s.s.g.s.s.",
"s.g.s.p.p.p.p.p.p.p.p.p.p.p.b n.-XqX^ C.2.` qXqXqX( '.~.C.C./ uX1XI s.p.p.Q Y Y W I W p.f.s.p.p.s.s.",
"s.g.s.p.p.p.p.p.p.p.p.p.Q p.b N.1X<X] C.'./ 0XqX4X( '.[.S.V.^ qXuXU s.s.s.p.W Y W I W p.s.s.s.p.s.s.",
"s.g.s.p.p.p.p.p.p.p.p.p.Q #.&X;X<X*X[ Z.).` *X<X,X( '.[.S.C.d qXpXx s.s.s.p.W Y E I W p.f.s.s.s.s.s.",
"s.g.s.p.p.p.p.p.p.p.p.p.Q U ,X,X=XM.s ] ).' rXqX4X) P.A.Z.C.d 1XqX-Xi.p.f.p.W Y E I W p.f.s.s.s.s.g.",
"s.g.s.p.p.p.p.p.p.p.p.p.p.c &X].z.U d 2.1.' rX<X>X/ ;.r.H.L.3.*X0X3Xb p.f.p.W Y W I W p.f.s.s.s.s.g.",
"s.g.s.p.p.p.p.p.p.p.p.p.p.p.U U U pX; c &X3XqXqX4XrXeX5X<X*Xb U uXrXT p.s.Q W Y W I W p.f.s.s.s.s.s.",
"p.g.p.p.p.p.p.p.p.p.p.p.p.p.p.s.s.iXm = , - = = - ; = : - : ; U 4X0XT p.p.Q Y Y W I W p.f.s.s.s.s.s.",
"f.p.s.s.s.p.p.p.p.! Q ! ! ! ! ! p.yXZ A A V N M , V N V V V V #.-X:Xb p.s.W Y Y W W Q s.f.f.s.s.s.s.",
"f.p.g.s.s.p.p.p.p.Q Q Q Q ! ! ! ! 7XZ G |.|.C Z ; n V C C C C 3 n.m.u.s.s.W T T W W p.s.g.g.s.s.g.p.",
"s.p.g.s.s.p.p.p.! Q Q Q Q Q Q ! ! #Xn D XXXXC Z n = N C C A A = U p.f.g.s.W T T W Q p.s.g.g.s.s.s.p.",
"f.s.g.s.s.p.Q p.Q Q W W W Q Q ! p.j.> H oXXXS F D = N Z Z H G = g.g.g.g.s.W T T W s.s.g.g.f.s.s.s.p.",
"j.g.g.s.s.p.Q Q Q W W W W W Q Q p.p.= D oXoXoXoXD : m A G F D = g.g.g.g.s.W T T W p.s.g.g.g.s.s.s.s.",
"j.f.s.s.s.p.Q Q Q W W Y W W W Q ! p.> D OX.X.XoXD - B C Z V C = g.g.g.g.s.W T T W s.s.g.g.s.s.s.s.p.",
"f.s.s.s.s.p.Q Q Q W Y Y Y W W Q ! p.= S OXOXOXoXH : d.n.M.M.= g.g.g.g.g.s.W T T W s.f.g.g.s.s.s.s.s.",
"! s.p.f.s.p.Q Q Q W W Y Y W W Q ! p.<  X}.}.H }.+X= p.b.n.z.U g.g.g.g.g.s.W Y T W s.f.g.g.s.s.s.f.s.",
"! h.s.s.s.! Q Q Q p.Q Y Y Y W W Q p.3  XG H D G  X- c.M.x.b.x g.g.s.s.s.s.W I I W s.s.s.s.s.s.s.s.s.",
"E f.s.s.s.! Q Q ! p.! W W W W W Q Q 2X- 8XuXpX8X, , @.l.n.2.B.g.g.g.f.s.s.s.T T Q s.s.s.s.s.s.s.s.f.",
"L f.h.s.s.p.! ! p.s.s.p.! Q Q Q Q Q @XM.*X4X<X1XM.U ].A.3.>XP.g.g.s.s.s.s.s.Q W W s.s.s.s.s.s.s.s.f.",
"j ! j.s.s.p.p.p.p.s.s.s.p.p.! ! p.p.v.m.1X>X<X>X%Xu.r.G.J.K.5 s.p.p.s.s.s.s.p.p.W p.p.p.s.s.s.s.s.f.",
"i R f.s.p.p.p.p.p.s.s.p.p.p.p.p.s.s.p.M.3.8.0X1.2.U 9 0 e q p.p.p.W Q p.s.s.p.s.W p.p.p.p.p.p.p.s.! ",
"t j R ! ! p.p.p.p.p.p.p.p.! p.p.s.s.p.L.tXeX2.qXqXF.k.f.s.s.p.p.W T W p.s.p.p.p.W p.p.p.p.p.p.s.! Q ",
"* y z Q Q Q p.s.s.p.s.p.p.! Q p.p.p.s.6 K.J.P.P.L.5 T s.s.s.s.p.s.T T s.s.p.p.p.s.Q Q Q Q Q Q Q Q E ",
"* 2 u v Y Q f.s.s.s.p.p.p.p.Q Q Q Q s.s.9 0 q q 5 s.f.f.f.f.f.f.s.i.p.s.s.p.p.p.p.p.p.Q W Q p.Q E J "
};
