/* XPM */
static char *_97e82eb2961459aceec2076dba9ac956vlpuriBbvPVhLZE[] = {
/* columns rows colors chars-per-pixel */
"50 50 215 2 ",
"   c #020202",
".  c #080408",
"X  c #0F120E",
"o  c #131213",
"O  c #1D1316",
"+  c #17171D",
"@  c #322218",
"#  c #0F1E27",
"$  c #0F1E2D",
"%  c #141C2B",
"&  c #191C29",
"*  c #141C33",
"=  c #12222B",
"-  c #232323",
";  c #2C2D2B",
":  c #372C28",
">  c #27322B",
",  c #37312B",
"<  c #2F3434",
"1  c #343334",
"2  c #5B300D",
"3  c #563014",
"4  c #5E3211",
"5  c #6C2E12",
"6  c #67231D",
"7  c #613217",
"8  c #681F25",
"9  c #422F23",
"0  c #493627",
"q  c #433429",
"w  c #513A23",
"e  c #543D2D",
"r  c #4D3637",
"t  c #4C3D31",
"y  c #543D32",
"u  c #752D28",
"i  c #5F472F",
"p  c #5A4538",
"a  c #72482A",
"s  c #604736",
"d  c #634C3B",
"f  c #744C3A",
"g  c #7C4D3C",
"h  c #6A503F",
"j  c #75513B",
"k  c #7C533C",
"l  c #3A3B49",
"z  c #213359",
"x  c #2C3F69",
"c  c #4B3353",
"v  c #35446B",
"b  c #2D4475",
"n  c #2E457A",
"m  c #344679",
"M  c #334A7A",
"N  c #4D4E53",
"B  c #4D5053",
"V  c #644F41",
"C  c #7C4C41",
"Z  c #764E49",
"A  c #685343",
"S  c #6F5749",
"D  c #725643",
"F  c #7C5342",
"G  c #755946",
"H  c #795A47",
"J  c #77574C",
"K  c #7D5449",
"L  c #755C4A",
"P  c #7A5E4A",
"I  c #7D614D",
"U  c #7E6350",
"Y  c #50556D",
"T  c #54607D",
"R  c #8D3A15",
"E  c #8D3919",
"W  c #903B19",
"Q  c #822822",
"!  c #893329",
"~  c #933229",
"^  c #AC3536",
"/  c #C43C3D",
"(  c #974717",
")  c #9B4A18",
"_  c #A3531D",
"`  c #A8591F",
"'  c #964824",
"]  c #9C5B24",
"[  c #965828",
"{  c #824738",
"}  c #834D3C",
"|  c #835739",
" . c #81523D",
".. c #8C5A39",
"X. c #A34925",
"o. c #A45322",
"O. c #A95826",
"+. c #B1592C",
"@. c #9F6129",
"#. c #97683E",
"$. c #AE6224",
"%. c #AC632D",
"&. c #B36527",
"*. c #B36824",
"=. c #B2632A",
"-. c #B5692B",
";. c #BA6C2B",
":. c #BE722D",
">. c #BE792C",
",. c #B66831",
"<. c #BD7232",
"1. c #C6443B",
"2. c #CE523E",
"3. c #C1752E",
"4. c #C2782E",
"5. c #C27533",
"6. c #C47A34",
"7. c #C97E35",
"8. c #C7793B",
"9. c #814E41",
"0. c #825245",
"q. c #8B5948",
"w. c #AA584F",
"e. c #81644E",
"r. c #8F694C",
"t. c #946547",
"y. c #93694A",
"u. c #99704D",
"i. c #836652",
"p. c #886752",
"a. c #856955",
"s. c #896955",
"d. c #856C5A",
"f. c #896E5A",
"g. c #916D54",
"h. c #8D715D",
"j. c #BB7C49",
"k. c #A9725E",
"l. c #996E68",
"z. c #A56D62",
"x. c #A57265",
"c. c #AD7164",
"v. c #B77768",
"b. c #CD534C",
"n. c #CA7142",
"m. c #D76F58",
"M. c #DB716A",
"N. c #DA7C76",
"B. c #DD7D79",
"V. c #B68133",
"C. c #CD8534",
"Z. c #CF8936",
"A. c #CE853A",
"S. c #CD8A3D",
"D. c #D08734",
"F. c #D18937",
"G. c #D1853B",
"H. c #D28A3A",
"J. c #D28B3B",
"K. c #D4933B",
"L. c #DA993E",
"P. c #BC856D",
"I. c #BC8170",
"U. c #CA8645",
"Y. c #D38842",
"T. c #DF9A44",
"R. c #E19E45",
"E. c #E59F48",
"W. c #DFA244",
"Q. c #E2A245",
"!. c #E3A444",
"~. c #E4A249",
"^. c #F0B94D",
"/. c #D19C7E",
"(. c #E48C6C",
"). c #E29F7F",
"_. c #F5BE7E",
"`. c #F7C04E",
"'. c #F7C252",
"]. c #384F8C",
"[. c #3F62A8",
"{. c #4263AB",
"}. c #7888A2",
"|. c #B4988C",
" X c #D28D82",
".X c #DE9784",
"XX c #E89E8D",
"oX c #E79E92",
"OX c #CBAF96",
"+X c #DEA698",
"@X c #E2A18F",
"#X c #EAA28D",
"$X c #EAA691",
"%X c #F9BE97",
"&X c #ECC796",
"*X c #FAC997",
"=X c #FDC59C",
"-X c #FECA9C",
";X c #EDCDA5",
":X c #FDC6A3",
">X c #F9C9A3",
",X c #F8D1AA",
"<X c #E9D0B9",
"1X c #FCDDBC",
"2X c #8597C0",
"3X c #9AABD1",
"4X c #FEE6C7",
"5X c #FCEAC6",
"6X c #FDECCC",
"7X c #FBF1CA",
"8X c #FEECD2",
"9X c #F8E9D6",
"0X c #FFFEEC",
"qX c #FCFFF4",
"wX c #F9FEF9",
/* pixels */
"q t t e e p d S L U U U U U d.d.d.d.d.a.a.a.a.a.a.a.d.d.d.d.f.f.d.a.d.d.d.f.d.U U U U L S d e 9 9 q ",
"q t t d h G I a.d.d.a.a.d.f.d.d.d.a.f.f.f.f.f.f.f.f.f.f.f.f.d.a.a.a.a.a.a.d.d.a.a.a.a.a.U L A s y q ",
"q p V U U a.d.f.f.f.f.f.f.d.d.a.a.a.d.f.f.h.h.h.g.g.s.s.s.s.a.a.i.a.a.a.a.a.d.a.a.U i.a.a.i.U P S p ",
"t A U U i.a.a.d.f.f.f.f.d.a.a.a.a.r.r.y.y.y.y.u.;.;.3.>.>.-.y.t.a.a.a.a.i.i.a.a.a.a.a.a.a.a.a.a.a.S ",
"A I I i.a.a.a.a.a.d.a.a.a.i.i.i.t.7.7.:.=._ -.7.S.Z.!.Q.Q.7.<.,.#.i.i.i.i.i.i.i.i.i.i.i.i.i.i.i.i.I ",
"G e.i.e.i.i.a.a.a.a.a.a.a.i.i.i.&.Q.Q.H.=.R 3.H.~.Q.!.Q.Q.F.H.6.$.i.e.e.e.e.e.e.e.i.i.i.i.i.i.i.i.e.",
"P i.i.e.e.e.i.i.a.a.a.i.i.i.i.$.Q.Q.A.!.R 5.F.~.F.H.Q.!.Q.!.F.G.&.e.e.e.e.e.e.e.e.e.e.i.i.i.i.i.p.p.",
"I e.e.I U I e.e.i.i.i.i.i.i.i.%.Q.R.Z.T.R *.H.H.H.R.!.Q.!.~.Z.6.5.=.e.e.e.e.e.e.I I e.e.e.i.i.i.i.i.",
"I I I I I U e.e.e.i.i.i.i.i.i.4 E.F.H.H.4.,.5.A.H.H.Q.~.~.8.Z.5.6.=.U U U U U U U U e.e.e.e.e.e.e.I ",
"I I P I I I U e.e.e.e.e.e.e.i.3 6.!.Q.H.D.' O.<.A.F.G.5.Z.=.C.=.A.+.I I I I I I I I I U U e.e.e.I I ",
"U I I I I I U e.e.e.e.e.e.e.i.o w V.G.H.F.6.%.o.O.6.<.-.7.=.;.&.,.' | I I I I I I I I I U U e.e.e.I ",
"I I I e.I P P I e.i.i.e.e.i.i.o 1 w @.A.A.K.W.3.-.O._ &.<.&.:.o.( ' -...I U U U U U U U e.e.e.e.e.e.",
"I i.I i.I P P I e.i.i.i.i.i.i.o - B , %.<.~.K.T.K.4.$.O.( ) ( ) -.` :.O.i U e.e.e.e.e.e.e.e.i.i.i.i.",
"I e.I e.I P P I e.i.i.i.i.i.i.o ; N & 0 d #.-.3.Y.R.L.7.-.) 5.=.$.-.o.U.7 U U U U e.e.e.e.e.i.i.i.e.",
"I e.I I P G G P U e.i.i.i.i.i.L + 1 . ; > < 9 N [ ( 6.G.C.7.*.8.=.G.*.O.4 I I I I e.e.e.e.e.i.i.e.e.",
"I e.I I P G G P U e.i.i.i.i.i.i.  > . o ; o   ; { c.W o.=.U.$.A.X.=.X.2 U I I I P e.e.e.e.e.i.i.e.e.",
"I e.I I P G G P e.i.i.i.i.i.i.i.i..   +XO + wX  O o F } E ( =._ ' 7 7 e.U I P P P e.e.e.e.e.i.i.e.e.",
"I e.I I P G G P e.i.i.e.e.e.e.e.e.e.k.*X0XX qX9X  5Xo c.k 4 2 4 4 i.i.e.U I P P P e.e.e.e.e.i.i.e.e.",
"I e.P I P G G I e.i.i.e.e.e.e.e.e.e.k.>X0Xo qX8X. 7XO c. .4 2 4 3 i.e.e.I I P P P e.e.e.e.e.e.e.e.e.",
"e.e.I e.P G G P e.e.e.e.e.e.e.e.e.e.#XqX8XqX6X6Xc 6X6X  8Xo o   e.i.e.e.e.I P G D P I i.a.p.i.e.e.e.",
"e.i.I e.P G G P e.e.e.e.e.e.e.e.e.e.$X8X5Xk *X5X6X6X=X  oX+ o   i.i.i.e.e.I P G D P I i.i.i.i.i.e.e.",
"e.i.e.e.P G G P e.e.e.e.e.e.e.e.e.e.Z g { -X8X8X6X4XXXF   +   i.i.i.i.e.e.I P G G L P e.i.i.e.e.e.e.",
"e.i.e.e.P G G P e.e.e.e.e.e.e.e.e.e.P j :X9X6X6X:X).9.F X . i.i.i.i.i.e.e.I G G G G P I e.e.e.e.e.e.",
"e.i.i.e.P G G P e.e.e.e.e.e.e.e.e.e.I I 0.0..X.X} ....q.5 u i.i.i.i.i.e.e.P G G L G L I e.e.i.i.i.i.",
"e.i.i.e.P G G P e.e.e.e.e.e.e.e.e.i.e.e.P q.P.w.+.n.,.o.X.! 0.i.i.i.i.i.e.P D G P D G I e.i.i.i.i.i.",
"i.i.i.e.P G G P e.e.e.e.e.e.e.e.e.i.i.i.t./.m.8.n.^ P.I.(.w.u i.i.i.i.i.e.H D G P D G I e.i.i.i.i.p.",
"i.p.i.e.I P P I e.e.e.e.e.e.e.e.e.e.i.i. Xm.,.`.b.v.8X6X1X Xu { i.i.i.i.e.P D G P D P i.i.i.i.i.i.i.",
"i.s.i.e.e.e.e.e.e.e.e.e.e.e.e.i.i.i.i.e.XX1.^.m.M.v.,X8X6X%XC Q p.p.p.i.e.I G G P D P e.a.p.e.e.i.i.",
"i.s.i.e.e.e.e.e.e.e.e.e.e.e.e.i.i.i.e.i.v.1.'.M.B.0.#X>X5X*X .^ F i.i.i.p.e.P G P D P e.p.p.i.e.i.i.",
"i.s.i.e.e.e.e.e.e.e.e.e.e.e.e.i.i.i.i.i.g 1.'.N.N.~ c.=X6X*XF %.g i.i.p.p.e.P G L D P e.a.p.i.i.i.p.",
"i.s.i.e.e.e.e.e.e.e.e.e.e.e.e.i.i.i.i.e. ./ ^.B.N.~ k.=X6X*Xk %.} i.i.p.a.e.P G L D P e.a.p.i.i.i.s.",
"i.s.i.e.e.e.e.e.e.e.e.e.e.e.e.i.i.i.i.e.k 6 W.2.b.u x.XX8X*Xg Q f i.i.p.a.e.P G P D P e.a.p.i.i.i.s.",
"i.s.i.e.e.e.e.e.e.e.e.e.e.e.e.i.i.i.i.e.j +X6XU.$.F -X8X8XXX6 8 p.i.i.i.i.I P G P D P e.a.p.i.i.i.p.",
"e.s.e.e.e.e.e.e.e.e.e.e.e.e.e.i.i.i.e.e.% = @X=X=Xk 8X6X:XC 8 p.p.p.i.i.e.I G G P D P e.a.i.i.i.i.i.",
"a.e.i.i.i.e.e.e.e.U I U U U U U e.e.I e.$ M & % % z.*X5XoXK $ p.p.a.s.s.i.P G G P P I i.a.a.i.i.i.p.",
"a.e.p.i.i.e.e.e.e.I I I I U U U U U I e.% m % v n * z.x.0.& % p.s.a.s.s.i.P H H P P e.p.s.s.p.i.i.e.",
"i.e.p.i.i.e.e.e.U I I I I I I U U e.I e.# b n * M n m M * = % p.s.a.s.s.i.P H H P I i.p.s.s.p.i.i.e.",
"a.i.p.i.i.e.U e.I I P P P I I U e.e.e.e.; z b z m [.{.M n % % s.s.s.s.s.i.P H H P i.i.a.s.a.p.i.i.e.",
"f.p.p.i.i.e.U U I P P P P P I I e.e.e.e.e.1 x & Y {.{.].].l $ s.s.s.s.s.i.P H H P e.i.a.s.a.p.i.i.i.",
"f.a.i.i.i.e.U I I P P G P P P I U e.i.e.e.i.Y r N 2X3X}.T B r s.s.s.s.s.i.P H H P i.p.s.s.p.i.p.i.e.",
"a.i.i.i.i.e.I I I P G G G P P I U e.i.U e.J k g y |.1X<XOXl.j s.s.s.s.s.i.P H H P i.a.s.s.p.i.p.p.i.",
"U i.e.a.i.e.I I I P P D G P P I U e.i.e.H K F k  .c.$X*X-X%XF s.s.s.s.s.i.P G H P p.a.s.a.p.p.p.a.i.",
"U d.i.i.i.U I I I e.I G G G P P I e.e.e.K g F g F @X#X-X*X:XK s.s.p.p.p.i.P D D P p.p.p.p.p.p.p.p.i.",
"L a.i.i.i.U I I U e.U P P P P P I I e.e.g C } | F .X$X-X-X=Xk s.s.s.s.p.i.i.H H I i.i.i.p.i.i.i.i.a.",
"A a.d.i.i.e.U U e.i.i.e.U I I I I I e.e.H J | n.U.j.;X>X,X_.k s.p.p.p.i.p.i.I P P i.i.i.i.i.i.i.i.a.",
"p U f.i.i.e.e.e.e.i.i.i.e.e.U U e.e.e.e.e.e.[ (.&X&X<.&X;X%.H i.e.e.i.i.i.i.e.e.P e.e.e.i.i.i.i.i.a.",
"e D a.i.e.e.e.e.e.i.i.e.e.e.e.e.i.i.e.e.e.e.a ] ] ] ] [ [ f e.e.e.P I e.i.i.e.i.P e.e.e.e.e.e.e.i.U ",
"9 p G U U e.e.e.e.e.e.e.e.U e.e.i.i.e.e.e.e.e.i.i.i.a.a.p.i.e.e.P H P e.i.e.e.e.P e.e.e.e.e.e.i.U I ",
"@ 0 d I I U e.i.i.e.i.e.e.U I e.e.e.i.i.i.i.i.i.i.i.i.i.p.i.i.e.i.H H i.p.e.e.e.i.I I I I I I I I L ",
"@ : q h G U a.p.i.i.e.e.e.e.I I I I i.i.i.a.a.i.i.i.a.a.a.a.a.a.i.P e.i.i.e.e.e.e.e.e.I P I e.I L V "
};
