/* XPM */
static char *_98d071924084e4f9e8dfe6096aff7f3FpSfhz6SxHfWgV8v[] = {
/* columns rows colors chars-per-pixel */
"50 50 217 2 ",
"   c #030203",
".  c #090506",
"X  c #04050C",
"o  c #0C0C0D",
"O  c #130C0F",
"+  c #0C0C13",
"@  c #141414",
"#  c #14171F",
"$  c #33170B",
"%  c #331B0C",
"&  c #270F11",
"*  c #2F0E10",
"=  c #351614",
"-  c #3C240D",
";  c #362317",
":  c #141D25",
">  c #171E2A",
",  c #1B1F36",
"<  c #1B222A",
"1  c #1B2532",
"2  c #27252D",
"3  c #352921",
"4  c #3A2C23",
"5  c #292931",
"6  c #411311",
"7  c #5D3515",
"8  c #5B3819",
"9  c #61300C",
"0  c #6D340E",
"q  c #7C2817",
"w  c #623C17",
"e  c #433429",
"r  c #4B3628",
"t  c #4B362A",
"y  c #543D2D",
"u  c #4C3D31",
"i  c #762721",
"p  c #7E2A22",
"a  c #6D3322",
"s  c #7A4317",
"d  c #5A4538",
"f  c #684829",
"g  c #654934",
"h  c #644C3C",
"j  c #7B4B3B",
"k  c #6A503F",
"l  c #765339",
"z  c #7B513C",
"x  c #1E2340",
"c  c #34334C",
"v  c #263759",
"b  c #24385A",
"n  c #283A63",
"m  c #323D71",
"M  c #33415E",
"N  c #2C436D",
"B  c #3D4A68",
"V  c #2D4474",
"C  c #2E447A",
"Z  c #2F487B",
"A  c #324778",
"S  c #32457B",
"D  c #644F41",
"F  c #7B4E44",
"G  c #685343",
"H  c #6F5749",
"J  c #725643",
"K  c #7A5343",
"L  c #755946",
"P  c #795A47",
"I  c #7C504A",
"U  c #755C4A",
"Y  c #7A5D4A",
"T  c #7D614D",
"R  c #7E6350",
"E  c #41527B",
"W  c #67686E",
"Q  c #656872",
"!  c #832B1F",
"~  c #852F27",
"^  c #873726",
"/  c #A5342D",
"(  c #AB352C",
")  c #B13132",
"_  c #8E471F",
"`  c #9B4A13",
"'  c #9D4D1B",
"]  c #90571C",
"[  c #9C511D",
"{  c #A44D17",
"}  c #A04F1E",
"|  c #A2521B",
" . c #A5591B",
".. c #B1621C",
"X. c #854221",
"o. c #9A4E24",
"O. c #955527",
"+. c #814F3C",
"@. c #83523C",
"#. c #A64B24",
"$. c #A45421",
"%. c #A45D24",
"&. c #A95923",
"*. c #B85D27",
"=. c #9E6926",
"-. c #AE6426",
";. c #AA652A",
":. c #B26425",
">. c #B3632B",
",. c #B46B2C",
"<. c #BA6D2C",
"1. c #A7742E",
"2. c #B9772C",
"3. c #BD752D",
"4. c #B96D32",
"5. c #BB7737",
"6. c #BC7931",
"7. c #C7573E",
"8. c #C1752D",
"9. c #C27A2D",
"0. c #C27533",
"q. c #C37A33",
"w. c #CA7E34",
"e. c #C2763B",
"r. c #CA7E3A",
"t. c #834A45",
"y. c #835444",
"u. c #815C49",
"i. c #905C4C",
"p. c #BF594B",
"a. c #81644E",
"s. c #836652",
"d. c #886752",
"f. c #856955",
"g. c #886956",
"h. c #856C5A",
"j. c #896E5A",
"k. c #8C705D",
"l. c #B57158",
"z. c #B37665",
"x. c #CD4F4B",
"c. c #CB5347",
"v. c #DA756C",
"b. c #D97975",
"n. c #DA7D76",
"m. c #DB7C7B",
"M. c #CA842F",
"N. c #D6852F",
"B. c #C68133",
"V. c #CB8335",
"C. c #CD8A35",
"Z. c #C7873A",
"A. c #CD843B",
"S. c #D48637",
"D. c #D08B36",
"F. c #D28C3B",
"G. c #D7933B",
"H. c #D4913D",
"J. c #DEA23F",
"K. c #E3A23E",
"L. c #AE8462",
"P. c #CD8342",
"I. c #D68942",
"U. c #DA9642",
"Y. c #DD9B44",
"T. c #E19D49",
"R. c #E2A344",
"E. c #E2A245",
"W. c #E3A148",
"Q. c #F1BD4E",
"!. c #DA8178",
"~. c #CF9074",
"^. c #E28079",
"/. c #E59C79",
"(. c #F4C14F",
"). c #354D8B",
"_. c #3F5FA4",
"`. c #495784",
"'. c #40589B",
"]. c #45649F",
"[. c #435CA3",
"{. c #425FA8",
"}. c #4263A6",
"|. c #4462AB",
" X c #4864AD",
".X c #4962B5",
"XX c #5D70B2",
"oX c #6776BB",
"OX c #7B86AE",
"+X c #8895B6",
"@X c #DC9783",
"#X c #E59E8B",
"$X c #EA9D8D",
"%X c #EB9E93",
"&X c #E5A38A",
"*X c #E9A28B",
"=X c #EDA98D",
"-X c #F6BC8A",
";X c #FBC293",
":X c #F7C79D",
">X c #FDC69C",
",X c #FDC99B",
"<X c #FDD19A",
"1X c #FDCCA3",
"2X c #FAC9A7",
"3X c #FBD1A9",
"4X c #F9CFB1",
"5X c #FAD7B8",
"6X c #FDE0BB",
"7X c #CCCDCD",
"8X c #D0D3D6",
"9X c #FBDFCC",
"0X c #FCE8C7",
"qX c #FDECCC",
"wX c #FAF1C8",
"eX c #FEEDD3",
"rX c #FDF7F1",
/* pixels */
"e u u t y d h H U R R R R R h.h.h.h.h.f.f.f.f.f.f.f.h.h.h.h.j.j.h.f.h.h.h.j.h.R R R R U H h y t e e ",
"e u u h k L T f.h.h.f.f.h.j.h.h.h.f.j.j.j.j.j.j.j.j.j.j.j.j.h.f.f.f.f.f.f.h.h.f.f.f.f.f.R U k g y e ",
"e d D R R f.h.j.j.j.j.j.j.h.h.f.f.f.h.j.j.k.| } &.0.0.3.{ O.f.f.s.f.f.f.f.f.h.f.f.R s.f.f.s.s.Y H d ",
"u G R R s.f.f.h.j.j.j.g.h.f.f.f.f.f.f.f.$.[ q.q.R.W.R.R.C.8.O.O.f.f.f.f.s.s.f.f.f.f.f.f.f.f.f.f.f.H ",
"G T T s.f.f.f.f.f.g.f.f.f.s.s.s.s.s.f.#.C.J.W.R.R.R.R.R.J.C.N.4.o.s.s.s.s.s.s.s.s.s.s.s.s.s.s.s.s.T ",
"L a.s.a.s.s.f.f.f.f.f.f.f.s.s.s.s.s.| 9.R.R.R.R.R.R.R.R.W.S.A.q.0.[ a.a.a.a.a.a.a.s.s.s.s.s.s.s.s.a.",
"Y s.s.a.a.a.s.s.f.f.f.s.s.s.s.s.s.[ { 8.R.I.S.D.R.R.R.R.S.A.9.A.>.' ` a.a.a.a.a.a.a.a.s.s.s.s.s.s.s.",
"T a.a.T R a.a.a.s.s.s.s.s.s.s.[ [ q.3.V.6.K.R.Y.H.Y.S.S.9.A.:.8.A...*.} { a.a.a.T T a.a.a.s.s.s.a.s.",
"T T T T T R a.a.a.s.s.s.s.s.#.M.0.S.| 8.q.S.9.q.T.6.9.e.A.q.3.:.0. .I.0.H.#.R R R R a.a.a.a.a.a.a.a.",
"T T Y T T T R a.a.a.a.a.a.9 0.0.6.0.$.:.:.q.0.9.C.Y.0.D.V.0.>.>.>.' 8.0.5.5.7 T T T T R R a.a.a.T T ",
"R T T T T T R a.a.a.a.a.a.9 3.A.3.F.>.} 0.S.3.e.8.q.3.0.0.>.:.:.$.:.F.0.C.e.9 T T T T T R R a.a.a.T ",
"T T T a.T Y Y T a.s.s.a.s.9 F.V.0.r.<.$.:.0.<.<.q.3.0.<.4.>.<.&.' <.V.0.r.B.9 R R R R R a.a.a.a.a.a.",
"T s.T s.T Y Y T a.s.s.s.s.l =.F.q.r.F.>.' &.%. .<.<.<.:.-.} &.| ,.F.r.0.A.O.g a.a.a.a.a.a.a.s.s.s.s.",
"T a.T a.T Y Y T a.s.s.s.s.s.7 F.F.U.F.F.<.-.%. .&.} | ' } | %.<.H.F.U.r.w.7 R R R a.a.a.a.a.s.s.s.a.",
"T a.T T Y L L Y R a.s.s.s.s.l O.6.R.F.F.V.V.A.w.:.:.&... .B.V.U.F.F.I.4.] f T T T a.a.a.a.a.s.s.a.a.",
"T a.T T Y L L Y R a.s.s.s.s.s.f s 6.F.D.S.U.F.F.V.D.F.S.H.F.F.C.q.6.;.s $ T T T Y a.a.a.a.a.s.s.a.a.",
"T a.T T Y L L Y a.s.s.s.s.s.s.s.g s O.9.C.R.r.V.G.U.G.G.U.r.S.:.-.s 0 $ 4 T Y Y Y a.a.a.a.a.s.s.a.a.",
"T a.T T Y L L Y a.s.s.a.a.a.a.a.a.% % t.;.1.3.2.B.3.3.2.,.2.%.s 8 % % t s.T Y Y Y a.a.a.a.a.s.s.a.a.",
"T a.Y T Y L L T a.s.s.a.a.a.a.a.a.4   c - - 8 8 w 8 8 8 8 8 ; - o   4 a.T T Y Y Y a.a.a.a.a.a.a.a.a.",
"a.a.T a.Y L L Y a.a.a.a.a.a.a.a.a.a.  o @ @ o o @ @ @ o @ @ o @ . 4 a.a.a.T Y L J Y T s.f.d.s.a.a.a.",
"a.s.T a.Y L L Y a.a.a.a.a.a.a.a.a.a.3   o @     @ @ @   @ @   o . s.s.a.a.T Y L J Y T s.s.s.s.s.a.a.",
"a.s.a.a.Y L L Y a.a.a.a.a.a.a.a.a.a.P ; = O   . O o @   o o = ; = u.s.a.a.T Y L L U Y a.s.s.a.a.a.a.",
"a.s.a.a.Y L L Y a.a.a.a.a.a.a.a.a.Y i.L.! & * &   o o     = a j L.i.u.a.a.T L L L L Y T a.a.a.a.a.a.",
"a.s.s.a.Y L L Y a.a.a.a.a.a.a.a.a.K ~.5Xp o.^ a * 6 6 6 $ X._ p 4X~.t.a.a.Y L L U L U T a.a.s.s.s.s.",
"a.s.s.a.Y L L Y a.a.a.a.a.a.a.a.a.K :X0Xp D.;.%.q ( ( / i -.V.~ eX>XK s.a.Y J L Y J L T a.s.s.s.s.s.",
"s.s.s.a.Y L L Y a.a.a.a.a.a.a.a.K &X0XeX! c.) #.G.(.(.Q.S.) 7.~ qX0X#XK a.P J L Y J L T a.s.s.s.s.d.",
"s.d.s.a.T Y Y T a.a.a.a.a.a.a.a.F ,X0X2Xp c.!.m.b.n.n.n.!.b.x.q 1XwX1Xz a.Y J L Y J Y s.s.s.s.s.s.s.",
"s.g.s.a.a.a.a.a.a.a.a.a.a.a.a.s.j qXqX*X) !.n.n.n.n.n.n.n.^.v./ =XqX0XK a.T L L Y J Y a.f.d.a.a.s.s.",
"s.g.s.a.a.a.a.a.a.a.a.a.a.a.a.F %XqX:X+.( !.n.n.n.n.n.n.n.n.b.( y.2XeX$XI a.Y L Y J Y a.d.d.s.a.s.s.",
"s.g.s.a.a.a.a.a.a.a.a.a.a.a.a.l >XqX%XC.:.p.m.m.m.n.n.n.^.n.c.;.I.&XeX,XF a.Y L U J Y a.f.d.s.a.s.d.",
"s.g.s.a.a.a.a.a.a.a.a.T a.a.z :XeX,XF s.*.P.>.*.c.x.x.x.7.,.P.:.s.y.<XwX>Xz Y L U J Y a.f.d.s.s.s.g.",
"s.g.s.a.a.a.a.a.a.a.a.T a.a.K ,X>X*Xj a.  #X$X/.S.W.W.W.I.#X/.. s.z $X>X,Xy.Y L Y J Y a.f.d.s.s.s.g.",
"s.g.s.a.a.a.a.a.a.a.a.a.a.a.F &X>Xy.s.:   .           X         > s.j ,X$Xy.Y L Y J Y a.f.d.s.s.s.d.",
"a.g.a.a.a.a.a.a.a.a.a.a.a.a.a.z z s.a.v > C }.|.|.'.A C |.|._.X n d.s.+.@.T L L Y J Y a.f.s.s.s.s.s.",
"f.a.s.s.s.a.a.a.a.R T R R R R R a.a.T b b S C C C Z A C C C m n n f.g.g.s.Y L P Y Y T s.f.f.s.s.s.d.",
"f.a.d.s.s.a.a.a.a.T T T T R R R R R T b V S V V C C C C V V V V v f.g.g.s.Y P P Y Y a.d.g.g.d.s.s.a.",
"s.a.d.s.s.a.a.a.R T T T T T T R R a.> n V [.V N n     X V C }.V n # g.g.s.Y P P Y T a.d.g.g.d.s.s.a.",
"f.s.d.s.s.a.R a.T T Y Y Y T T R a.a.> b |.|.|.[.S n X C ).|.}.}.v > g.g.s.Y P P Y s.s.f.g.f.d.s.s.a.",
"j.d.d.s.s.a.R R T Y Y Y Y Y T T a.a.> b |.|.|.[.).n + V ). X}.}.v > g.g.s.Y P P Y a.s.f.g.f.d.s.s.s.",
"j.f.s.s.s.a.R T T Y Y L Y Y Y T R a.> b |.|..X X'.N , A [.{.}.}.v > g.g.s.Y P P Y s.d.g.g.d.s.d.s.a.",
"f.s.s.s.s.a.T T T Y L L L Y Y T R a.1 M [..X}.}.S B x E V ]._.[.m 1 g.g.s.Y P P Y s.f.g.g.d.s.d.d.s.",
"R s.a.f.s.a.T T T Y Y J L Y Y T R a.5 W `.oXoXXX`.Q < Q ).XXoX`.W 2 g.g.s.Y L P Y d.f.g.f.d.d.d.f.s.",
"R h.s.s.s.R T T T a.T L L L Y Y T a.a.2 7XrX8X7XOX5 2 c +X8XrX7X5 d.d.d.s.Y J J Y d.d.d.d.d.d.d.d.s.",
"U f.s.s.s.R T T R a.R Y Y Y Y Y T T a.K *X>X0X0X5Xz.z z.1X0X6X#Xj g.g.d.s.s.P P T s.s.s.d.s.s.s.s.f.",
"G f.h.s.s.a.R R a.s.s.a.R T T T T T a.y.*X2X>X;X2X@Xu.*X1X>X2X#Xy.d.d.s.d.s.T Y Y s.s.s.s.s.s.s.s.f.",
"d R j.s.s.a.a.a.a.s.s.s.a.a.R R a.T a.l.=XwX1X3X9X@Xy.&X5X3X0X=Xl.a.s.s.s.s.a.a.Y a.a.a.s.s.s.s.s.f.",
"y J f.s.a.a.a.a.a.s.s.a.a.a.a.a.s.s.a.5.-X;X;X>X-X5.@.Z.-X;X-X-XZ.Y a.a.s.s.a.s.Y a.a.a.a.a.a.a.s.R ",
"e d L R R a.a.a.a.a.a.a.a.R a.a.s.s.a.8 A.r.B.B.2.f s.w w.r.w.w.8 P Y a.s.a.a.a.Y a.a.a.a.a.a.s.R T ",
"; t h T T R a.R s.a.s.a.a.R T a.a.a.s.s.s.s.s.s.s.s.s.s.d.s.s.a.s.P P s.d.a.a.a.s.T T T T T T T T U ",
"; 4 e k L R f.f.s.s.a.a.a.a.T T T T s.s.s.f.f.s.s.s.f.f.f.f.f.f.s.Y a.s.s.a.a.a.a.a.a.T Y T a.T U D "
};
